M48
; DRILL file {KiCad (6.0.4)} date Sat Sep  7 16:12:40 2024
; FORMAT={-:-/ absolute / inch / decimal}
; #@! TF.CreationDate,2024-09-07T16:12:40+01:00
; #@! TF.GenerationSoftware,Kicad,Pcbnew,(6.0.4)
; #@! TF.FileFunction,Plated,1,2,PTH
FMAT,2
INCH
; #@! TA.AperFunction,Plated,PTH,ViaDrill
T1C0.0157
; #@! TA.AperFunction,Plated,PTH,ComponentDrill
T2C0.0315
; #@! TA.AperFunction,Plated,PTH,ComponentDrill
T3C0.0394
; #@! TA.AperFunction,Plated,PTH,ComponentDrill
T4C0.0433
; #@! TA.AperFunction,Plated,PTH,ComponentDrill
T5C0.0472
; #@! TA.AperFunction,Plated,PTH,ComponentDrill
T6C0.0512
; #@! TA.AperFunction,Plated,PTH,ComponentDrill
T7C0.0591
%
G90
G05
T1
X7.874Y-3.5827
X7.874Y-3.5827
X8.4646Y-4.4882
T2
X7.7165Y-4.252
X7.7165Y-4.3504
X7.8543Y-4.9606
X7.874Y-5.315
X8.0512Y-4.9606
X8.0709Y-5.315
X8.2283Y-4.6457
X8.2283Y-4.7457
X8.2283Y-4.8457
X8.2283Y-4.9457
X8.2283Y-5.0457
X8.2283Y-5.1457
X8.2283Y-5.2457
X8.2283Y-5.3457
X8.5283Y-4.6457
X8.5283Y-4.7457
X8.5283Y-4.8457
X8.5283Y-4.9457
X8.5283Y-5.0457
X8.5283Y-5.1457
X8.5283Y-5.2457
X8.5283Y-5.3457
X8.6811Y-5.315
X8.7795Y-4.9016
X8.7795Y-5.0984
X8.878Y-5.315
T3
X7.6917Y-2.3815
X7.6917Y-2.4815
X7.6917Y-2.5815
X7.6917Y-2.6815
X7.6917Y-2.7815
X7.6917Y-2.8815
X7.6917Y-2.9815
X7.6917Y-3.0815
X7.6917Y-3.1815
X7.6917Y-3.2815
X7.6917Y-3.3815
X7.6917Y-3.4815
X7.6917Y-3.5815
X7.6917Y-3.6815
X7.6917Y-3.7815
X8.2917Y-2.3815
X8.2917Y-2.4815
X8.2917Y-2.5815
X8.2917Y-2.6815
X8.2917Y-2.7815
X8.2917Y-2.8815
X8.2917Y-2.9815
X8.2917Y-3.0815
X8.2917Y-3.1815
X8.2917Y-3.2815
X8.2917Y-3.3815
X8.2917Y-3.4815
X8.2917Y-3.5815
X8.2917Y-3.6815
X8.2917Y-3.7815
X8.6789Y-2.4419
X8.6789Y-3.2884
X8.7789Y-2.4419
X8.7789Y-3.2884
X8.8789Y-2.4419
X8.8789Y-3.2884
T4
X9.0157Y-4.5638
X9.0157Y-4.9638
T5
X8.1453Y-4.1339
X8.4445Y-3.7795
X8.4453Y-4.1339
X8.7402Y-3.9169
X8.7402Y-4.2169
X8.7445Y-3.7795
T6
X8.1858Y-2.1654
X8.3858Y-2.1654
X8.5858Y-2.1654
T7
X7.7165Y-4.8031
X7.7165Y-4.9606
X7.7165Y-5.1575
X7.7165Y-5.315
X8.7795Y-4.5669
X8.7795Y-4.7638
X8.8189Y-2.1654
X9.0157Y-2.1654
X9.0157Y-3.3858
X9.0157Y-3.5433
X9.0157Y-3.7008
X9.0157Y-3.8583
X9.0157Y-4.0945
X9.0157Y-5.1575
X9.0157Y-5.315
T0
M30
