%TF.GenerationSoftware,KiCad,Pcbnew,(6.0.4)*%
%TF.CreationDate,2024-09-07T16:12:38+01:00*%
%TF.ProjectId,pcb,7063622e-6b69-4636-9164-5f7063625858,rev?*%
%TF.SameCoordinates,Original*%
%TF.FileFunction,Legend,Top*%
%TF.FilePolarity,Positive*%
%FSLAX46Y46*%
G04 Gerber Fmt 4.6, Leading zero omitted, Abs format (unit mm)*
G04 Created by KiCad (PCBNEW (6.0.4)) date 2024-09-07 16:12:38*
%MOMM*%
%LPD*%
G01*
G04 APERTURE LIST*
%ADD10C,0.300000*%
%ADD11C,0.150000*%
%ADD12C,0.132291*%
%ADD13C,0.100000*%
%ADD14C,0.144780*%
%ADD15C,0.121920*%
%ADD16C,0.120000*%
%ADD17C,0.127000*%
%ADD18C,0.152400*%
G04 APERTURE END LIST*
D10*
X226464285Y-81471071D02*
X226464285Y-79971071D01*
X226964285Y-81042500D01*
X227464285Y-79971071D01*
X227464285Y-81471071D01*
X228178571Y-81471071D02*
X228178571Y-79971071D01*
X228892857Y-81471071D02*
X228892857Y-79971071D01*
X229250000Y-79971071D01*
X229464285Y-80042500D01*
X229607142Y-80185357D01*
X229678571Y-80328214D01*
X229750000Y-80613928D01*
X229750000Y-80828214D01*
X229678571Y-81113928D01*
X229607142Y-81256785D01*
X229464285Y-81399642D01*
X229250000Y-81471071D01*
X228892857Y-81471071D01*
X230392857Y-81471071D02*
X230392857Y-79971071D01*
X227500000Y-82386071D02*
X227785714Y-82386071D01*
X227928571Y-82457500D01*
X228071428Y-82600357D01*
X228142857Y-82886071D01*
X228142857Y-83386071D01*
X228071428Y-83671785D01*
X227928571Y-83814642D01*
X227785714Y-83886071D01*
X227500000Y-83886071D01*
X227357142Y-83814642D01*
X227214285Y-83671785D01*
X227142857Y-83386071D01*
X227142857Y-82886071D01*
X227214285Y-82600357D01*
X227357142Y-82457500D01*
X227500000Y-82386071D01*
X228785714Y-82386071D02*
X228785714Y-83600357D01*
X228857142Y-83743214D01*
X228928571Y-83814642D01*
X229071428Y-83886071D01*
X229357142Y-83886071D01*
X229500000Y-83814642D01*
X229571428Y-83743214D01*
X229642857Y-83600357D01*
X229642857Y-82386071D01*
X230142857Y-82386071D02*
X231000000Y-82386071D01*
X230571428Y-83886071D02*
X230571428Y-82386071D01*
D11*
X212476190Y-77452380D02*
X213047619Y-77452380D01*
X212761904Y-78452380D02*
X212761904Y-77452380D01*
X213333333Y-78166666D02*
X213809523Y-78166666D01*
X213238095Y-78452380D02*
X213571428Y-77452380D01*
X213904761Y-78452380D01*
X214952380Y-78166666D02*
X215428571Y-78166666D01*
X214857142Y-78452380D02*
X215190476Y-77452380D01*
X215523809Y-78452380D01*
X215857142Y-77452380D02*
X215857142Y-78261904D01*
X215904761Y-78357142D01*
X215952380Y-78404761D01*
X216047619Y-78452380D01*
X216238095Y-78452380D01*
X216333333Y-78404761D01*
X216380952Y-78357142D01*
X216428571Y-78261904D01*
X216428571Y-77452380D01*
X216904761Y-78452380D02*
X216904761Y-77452380D01*
X217142857Y-77452380D01*
X217285714Y-77500000D01*
X217380952Y-77595238D01*
X217428571Y-77690476D01*
X217476190Y-77880952D01*
X217476190Y-78023809D01*
X217428571Y-78214285D01*
X217380952Y-78309523D01*
X217285714Y-78404761D01*
X217142857Y-78452380D01*
X216904761Y-78452380D01*
X217904761Y-78452380D02*
X217904761Y-77452380D01*
X218571428Y-77452380D02*
X218761904Y-77452380D01*
X218857142Y-77500000D01*
X218952380Y-77595238D01*
X219000000Y-77785714D01*
X219000000Y-78119047D01*
X218952380Y-78309523D01*
X218857142Y-78404761D01*
X218761904Y-78452380D01*
X218571428Y-78452380D01*
X218476190Y-78404761D01*
X218380952Y-78309523D01*
X218333333Y-78119047D01*
X218333333Y-77785714D01*
X218380952Y-77595238D01*
X218476190Y-77500000D01*
X218571428Y-77452380D01*
X220190476Y-78452380D02*
X220190476Y-77452380D01*
X220523809Y-78166666D01*
X220857142Y-77452380D01*
X220857142Y-78452380D01*
X221333333Y-78452380D02*
X221333333Y-77452380D01*
X221809523Y-78452380D02*
X221809523Y-77452380D01*
X222047619Y-77452380D01*
X222190476Y-77500000D01*
X222285714Y-77595238D01*
X222333333Y-77690476D01*
X222380952Y-77880952D01*
X222380952Y-78023809D01*
X222333333Y-78214285D01*
X222285714Y-78309523D01*
X222190476Y-78404761D01*
X222047619Y-78452380D01*
X221809523Y-78452380D01*
X222809523Y-78452380D02*
X222809523Y-77452380D01*
X224523809Y-78452380D02*
X224047619Y-78452380D01*
X224047619Y-77452380D01*
X225047619Y-77452380D02*
X225238095Y-77452380D01*
X225333333Y-77500000D01*
X225428571Y-77595238D01*
X225476190Y-77785714D01*
X225476190Y-78119047D01*
X225428571Y-78309523D01*
X225333333Y-78404761D01*
X225238095Y-78452380D01*
X225047619Y-78452380D01*
X224952380Y-78404761D01*
X224857142Y-78309523D01*
X224809523Y-78119047D01*
X224809523Y-77785714D01*
X224857142Y-77595238D01*
X224952380Y-77500000D01*
X225047619Y-77452380D01*
X226095238Y-77452380D02*
X226285714Y-77452380D01*
X226380952Y-77500000D01*
X226476190Y-77595238D01*
X226523809Y-77785714D01*
X226523809Y-78119047D01*
X226476190Y-78309523D01*
X226380952Y-78404761D01*
X226285714Y-78452380D01*
X226095238Y-78452380D01*
X226000000Y-78404761D01*
X225904761Y-78309523D01*
X225857142Y-78119047D01*
X225857142Y-77785714D01*
X225904761Y-77595238D01*
X226000000Y-77500000D01*
X226095238Y-77452380D01*
X226952380Y-78452380D02*
X226952380Y-77452380D01*
X227333333Y-77452380D01*
X227428571Y-77500000D01*
X227476190Y-77547619D01*
X227523809Y-77642857D01*
X227523809Y-77785714D01*
X227476190Y-77880952D01*
X227428571Y-77928571D01*
X227333333Y-77976190D01*
X226952380Y-77976190D01*
X227952380Y-77928571D02*
X228285714Y-77928571D01*
X228428571Y-78452380D02*
X227952380Y-78452380D01*
X227952380Y-77452380D01*
X228428571Y-77452380D01*
X229428571Y-78452380D02*
X229095238Y-77976190D01*
X228857142Y-78452380D02*
X228857142Y-77452380D01*
X229238095Y-77452380D01*
X229333333Y-77500000D01*
X229380952Y-77547619D01*
X229428571Y-77642857D01*
X229428571Y-77785714D01*
X229380952Y-77880952D01*
X229333333Y-77928571D01*
X229238095Y-77976190D01*
X228857142Y-77976190D01*
D10*
X214357142Y-65178571D02*
X214071428Y-65178571D01*
X213928571Y-65250000D01*
X213857142Y-65321428D01*
X213714285Y-65535714D01*
X213642857Y-65821428D01*
X213642857Y-66392857D01*
X213714285Y-66535714D01*
X213785714Y-66607142D01*
X213928571Y-66678571D01*
X214214285Y-66678571D01*
X214357142Y-66607142D01*
X214428571Y-66535714D01*
X214500000Y-66392857D01*
X214500000Y-66035714D01*
X214428571Y-65892857D01*
X214357142Y-65821428D01*
X214214285Y-65750000D01*
X213928571Y-65750000D01*
X213785714Y-65821428D01*
X213714285Y-65892857D01*
X213642857Y-66035714D01*
X215142857Y-66678571D02*
X215142857Y-65178571D01*
X216000000Y-66678571D01*
X216000000Y-65178571D01*
X217500000Y-66678571D02*
X216642857Y-66678571D01*
X217071428Y-66678571D02*
X217071428Y-65178571D01*
X216928571Y-65392857D01*
X216785714Y-65535714D01*
X216642857Y-65607142D01*
X218000000Y-65178571D02*
X218928571Y-65178571D01*
X218428571Y-65750000D01*
X218642857Y-65750000D01*
X218785714Y-65821428D01*
X218857142Y-65892857D01*
X218928571Y-66035714D01*
X218928571Y-66392857D01*
X218857142Y-66535714D01*
X218785714Y-66607142D01*
X218642857Y-66678571D01*
X218214285Y-66678571D01*
X218071428Y-66607142D01*
X218000000Y-66535714D01*
X219428571Y-65178571D02*
X220428571Y-65178571D01*
X219785714Y-66678571D01*
D12*
X219293499Y-88269773D02*
X219268680Y-88293370D01*
X224788265Y-87039579D02*
X224629657Y-86914312D01*
X225608162Y-90937073D02*
X225600855Y-90892396D01*
X220401185Y-92682079D02*
X220397377Y-92650338D01*
X218948523Y-90090334D02*
X218914271Y-90089467D01*
X218362502Y-90382787D02*
X218345192Y-90409781D01*
X218314471Y-91043253D02*
X218329168Y-91071943D01*
X221065194Y-87904501D02*
X221064328Y-87938749D01*
X219488770Y-88147223D02*
X219458981Y-88160162D01*
X219165909Y-88425706D02*
X219149923Y-88454366D01*
X220275512Y-93139242D02*
X220294553Y-93111937D01*
X219268230Y-93216445D02*
X219293052Y-93240042D01*
X225592374Y-90801128D02*
X225591296Y-90754630D01*
X218249710Y-90789027D02*
X218252280Y-90822816D01*
X219135023Y-93026131D02*
X219149485Y-93055389D01*
X226106952Y-89889116D02*
X226145841Y-89869092D01*
X219319341Y-89280004D02*
X219345876Y-89300579D01*
X218850572Y-86898583D02*
X218668779Y-87041441D01*
X221531852Y-94206361D02*
X221563418Y-94215329D01*
X219112191Y-91390237D02*
X219143113Y-91379786D01*
X219268680Y-88293370D02*
X219268680Y-88293370D01*
X219073811Y-88763796D02*
X219074576Y-88795718D01*
X218262365Y-90888880D02*
X218269796Y-90921071D01*
X219803023Y-89426340D02*
X219834763Y-89422534D01*
X219182977Y-93112072D02*
X219202006Y-93139378D01*
X216942360Y-91246727D02*
X216972965Y-91487558D01*
X218256512Y-90856114D02*
X218262365Y-90888880D01*
X226106829Y-91620497D02*
X226068972Y-91598822D01*
X225591296Y-90754630D02*
X225591296Y-90754630D01*
X219802937Y-88101573D02*
X219771076Y-88099285D01*
X219222559Y-93165915D02*
X219244633Y-93191624D01*
X218780179Y-90102983D02*
X218747987Y-90110411D01*
X223574142Y-86308747D02*
X223382797Y-86234046D01*
X221094260Y-93768699D02*
X221104724Y-93799617D01*
X216972965Y-90021871D02*
X216942360Y-90262698D01*
X225617622Y-93590766D02*
X225842660Y-93253906D01*
X219519032Y-88135806D02*
X219488770Y-88147223D01*
X222200151Y-87468184D02*
X222177044Y-87446156D01*
X218256512Y-90653459D02*
X218252280Y-90686758D01*
X222177044Y-93078215D02*
X222152901Y-93057302D01*
X222394158Y-93605069D02*
X222395023Y-93570828D01*
X219459109Y-89367640D02*
X219488894Y-89380596D01*
X220385581Y-88922428D02*
X220392431Y-88891104D01*
X225962035Y-91524393D02*
X225928761Y-91496606D01*
X220018930Y-93349591D02*
X220048189Y-93335121D01*
X220294970Y-88397893D02*
X220275931Y-88370583D01*
X221331631Y-93037550D02*
X221306495Y-93057302D01*
X218597112Y-91339849D02*
X218625803Y-91354539D01*
X221116641Y-93829836D02*
X221129969Y-93859312D01*
X225595576Y-90847066D02*
X225592374Y-90801128D01*
X220184438Y-92251713D02*
X220158740Y-92229651D01*
X217392077Y-92841012D02*
X217498354Y-93048509D01*
X218914271Y-90089467D02*
X218880033Y-90090333D01*
X221094250Y-93372908D02*
X221085281Y-93404490D01*
X225600858Y-90616957D02*
X225608168Y-90572307D01*
X217015287Y-89784900D02*
X216972965Y-90021871D01*
X221331639Y-94104068D02*
X221357724Y-94122622D01*
X219345431Y-92209174D02*
X219318893Y-92229735D01*
X225592374Y-90708166D02*
X225595577Y-90662259D01*
X219514119Y-90466404D02*
X219499426Y-90437722D01*
X221831004Y-94228613D02*
X221863777Y-94222760D01*
X219400621Y-93319206D02*
X219429289Y-93335191D01*
X222243120Y-93994102D02*
X222262869Y-93968962D01*
X225628672Y-91024275D02*
X225617451Y-90981048D01*
X218655278Y-90141747D02*
X218625803Y-90155070D01*
X219429420Y-92156634D02*
X219400753Y-92172624D01*
X219580443Y-92099534D02*
X219549411Y-92107908D01*
X222177075Y-94063395D02*
X222200181Y-94041360D01*
X221357724Y-88490532D02*
X221384718Y-88507840D01*
X218466873Y-90262294D02*
X218443762Y-90284323D01*
X220397377Y-92650338D02*
X220392046Y-92618774D01*
X221595601Y-88590657D02*
X221628357Y-88596509D01*
X221129969Y-88227239D02*
X221144666Y-88255931D01*
X220019425Y-89367702D02*
X220048688Y-89353231D01*
X219558780Y-90921076D02*
X219566208Y-90888872D01*
X220132699Y-89300678D02*
X220159246Y-89280113D01*
X220759945Y-95469257D02*
X220996912Y-95511579D01*
X221094260Y-88136627D02*
X221104724Y-88167545D01*
X221144654Y-93253593D02*
X221129957Y-93282286D01*
X219866245Y-88110716D02*
X219834680Y-88105383D01*
X222354652Y-93341986D02*
X222342739Y-93311765D01*
X216923776Y-90507078D02*
X216917513Y-90754709D01*
X219268363Y-92275428D02*
X219244754Y-92300252D01*
X219319206Y-88247698D02*
X219293499Y-88269773D01*
X220385191Y-92904252D02*
X220392046Y-92872928D01*
X218400812Y-91178029D02*
X218421728Y-91202172D01*
X221863754Y-87286861D02*
X221830986Y-87281011D01*
X225591296Y-90754630D02*
X225592374Y-90708166D01*
X226442778Y-89778979D02*
X226396157Y-89575308D01*
X223574138Y-95200831D02*
X223761411Y-95118301D01*
X221177999Y-93942872D02*
X221196552Y-93968962D01*
X225808788Y-91371833D02*
X225782315Y-91337469D01*
X220209248Y-92275296D02*
X220184438Y-92251713D01*
X219234490Y-94870314D02*
X219436011Y-94986192D01*
X225928761Y-91496606D02*
X225896751Y-91467409D01*
X219447549Y-91152944D02*
X219466100Y-91126856D01*
X222374082Y-93737122D02*
X222381510Y-93704929D01*
X222391589Y-88006776D02*
X222394158Y-87972987D01*
X219085982Y-88636703D02*
X219080655Y-88668268D01*
X222395023Y-87938749D02*
X222395023Y-87938749D01*
X220294553Y-93111937D02*
X220312071Y-93083923D01*
X219518733Y-92117805D02*
X219488469Y-92129225D01*
X219578859Y-90788968D02*
X219579724Y-90754709D01*
X222222210Y-88386147D02*
X222243120Y-88362001D01*
X221729649Y-92905375D02*
X221695423Y-92906240D01*
X219122137Y-92495548D02*
X219110712Y-92525813D01*
X219110712Y-92525813D02*
X219100811Y-92556492D01*
X220404232Y-92745854D02*
X220403470Y-92713937D01*
X221895973Y-88583223D02*
X221927552Y-88574255D01*
X219015634Y-90097138D02*
X218982325Y-90092905D01*
X219073381Y-92745947D02*
X219074140Y-92777867D01*
X222127766Y-87405496D02*
X222101679Y-87386949D01*
X219579724Y-90754709D02*
X219579724Y-90754709D01*
X219483406Y-90409864D02*
X219466100Y-90382872D01*
X218491019Y-90241384D02*
X218466873Y-90262294D01*
X222177044Y-87446156D02*
X222152901Y-87425246D01*
X219165470Y-93084056D02*
X219182977Y-93112072D01*
X218780179Y-91406606D02*
X218812945Y-91412449D01*
X220048688Y-89353231D02*
X220077361Y-89337237D01*
X221077850Y-87804628D02*
X221071997Y-87837399D01*
X223944411Y-95028142D02*
X224122936Y-94930558D01*
X222018164Y-94170654D02*
X222046855Y-94155957D01*
X220377208Y-88953456D02*
X220385581Y-88922428D01*
X223944417Y-86481438D02*
X223761416Y-86391279D01*
X221160678Y-87593684D02*
X221144654Y-87621549D01*
X221763899Y-88603310D02*
X221797698Y-88600740D01*
X219293052Y-93240042D02*
X219318761Y-93262117D01*
X217295703Y-92627846D02*
X217392077Y-92841012D01*
X222329415Y-87650206D02*
X222314722Y-87621514D01*
X218812945Y-90097133D02*
X218780179Y-90102983D01*
X223382795Y-95275533D02*
X223574138Y-95200831D01*
X219122572Y-89014200D02*
X219135521Y-89043991D01*
X221729649Y-92905375D02*
X221729649Y-92905375D01*
X226185708Y-89850760D02*
X226226506Y-89834169D01*
X221065194Y-93536576D02*
X221064328Y-93570828D01*
X220377208Y-88574580D02*
X220367310Y-88543901D01*
X221306495Y-87425271D02*
X221282352Y-87446183D01*
X219223113Y-89183763D02*
X219245201Y-89209466D01*
X219549411Y-92107908D02*
X219518733Y-92117805D01*
X221695423Y-87274214D02*
X221661644Y-87276783D01*
X221797698Y-94232846D02*
X221831004Y-94228613D01*
X219427797Y-91178081D02*
X219447549Y-91152944D01*
X222372081Y-95524523D02*
X222580750Y-95492000D01*
X219519153Y-89392028D02*
X219549826Y-89401935D01*
X218982325Y-90092905D02*
X218948523Y-90090334D01*
X221661645Y-94232846D02*
X221695423Y-94235416D01*
X221628357Y-94228613D02*
X221661645Y-94232846D01*
X221064328Y-93570828D02*
X221065196Y-93605069D01*
X219173334Y-90141779D02*
X219143113Y-90129861D01*
X225866054Y-91436850D02*
X225836717Y-91404976D01*
X219580854Y-89410319D02*
X219612177Y-89417179D01*
X223761416Y-86391279D02*
X223574142Y-86308747D01*
X219738855Y-92080506D02*
X219706936Y-92081267D01*
X226126552Y-88796494D02*
X226039381Y-88611769D01*
X219086007Y-88890892D02*
X219092864Y-88922223D01*
X219527443Y-90495868D02*
X219514119Y-90466404D01*
X221282361Y-94063395D02*
X221306504Y-94084311D01*
X219611646Y-93399125D02*
X219643212Y-93404451D01*
X218314471Y-90466330D02*
X218301143Y-90495802D01*
X218914271Y-91420083D02*
X218914271Y-91420083D01*
X218278764Y-90952646D02*
X218289227Y-90983562D01*
X225944629Y-93078177D02*
X226039295Y-92897851D01*
X221797685Y-87276782D02*
X221763892Y-87274213D01*
X220132213Y-92209109D02*
X220104917Y-92190088D01*
X220366911Y-92525734D02*
X220355486Y-92495468D01*
X219183065Y-92379810D02*
X219165549Y-92407828D01*
X221104713Y-93341986D02*
X221094250Y-93372908D01*
X217392077Y-88668457D02*
X217295703Y-88881616D01*
X222391588Y-93502774D02*
X222387357Y-93469465D01*
X222395023Y-87938749D02*
X222394158Y-87904494D01*
X221067764Y-93502774D02*
X221065194Y-93536576D01*
X221071997Y-93469465D02*
X221067764Y-93502774D01*
X220075191Y-86234572D02*
X219856664Y-86320736D01*
X225595577Y-90662259D02*
X225600858Y-90616957D01*
X218278764Y-90556930D02*
X218269796Y-90588503D01*
X222046855Y-88523852D02*
X222074718Y-88507828D01*
X221116630Y-87679716D02*
X221104713Y-87709934D01*
X219866326Y-89417205D02*
X219897654Y-89410351D01*
X225944705Y-88431438D02*
X225842728Y-88255704D01*
X220392434Y-88636942D02*
X220385582Y-88605613D01*
X221177987Y-93198726D02*
X221160678Y-93225725D01*
X219080224Y-92841472D02*
X219085551Y-92873037D01*
X220401566Y-88827803D02*
X220403851Y-88795945D01*
X224296784Y-94825751D02*
X224465753Y-94713922D01*
X226310552Y-91703239D02*
X226268042Y-91690266D01*
X221116641Y-88197763D02*
X221129969Y-88227239D01*
X221196540Y-93172637D02*
X221177987Y-93198726D01*
X219643335Y-92087355D02*
X219611771Y-92092683D01*
X225617451Y-90981048D02*
X225608162Y-90937073D01*
X218249710Y-90720548D02*
X218248844Y-90754789D01*
X221384718Y-88507840D02*
X221412578Y-88523863D01*
X218421728Y-91202172D02*
X218443762Y-91225280D01*
X220233282Y-88318328D02*
X220209671Y-88293502D01*
X216972965Y-91487558D02*
X217015287Y-91724535D01*
X220312071Y-93083923D02*
X220328066Y-93055258D01*
X225617674Y-87918837D02*
X225495002Y-87758107D01*
X222365119Y-93768699D02*
X222374082Y-93737122D01*
X219337599Y-90241454D02*
X219312462Y-90221698D01*
X219549709Y-88125911D02*
X219519032Y-88135806D01*
X221531852Y-88574260D02*
X221563418Y-88583227D01*
X222314738Y-93888005D02*
X222329429Y-93859312D01*
X219361743Y-91247359D02*
X219384852Y-91225330D01*
X219345876Y-89300579D02*
X219373179Y-89319630D01*
X219897257Y-92099536D02*
X219865932Y-92092686D01*
X220232859Y-93191489D02*
X220254947Y-93165780D01*
X219149555Y-92436496D02*
X219135085Y-92465756D01*
X219675476Y-89426328D02*
X219707332Y-89428617D01*
X217739406Y-93445286D02*
X217873577Y-93633961D01*
X220385191Y-92587446D02*
X220376812Y-92556413D01*
X219312462Y-90221698D02*
X219286373Y-90203144D01*
X221628356Y-87281013D02*
X221595600Y-87286864D01*
X218747987Y-91399183D02*
X218780179Y-91406606D01*
X218542247Y-91306525D02*
X218569246Y-91323830D01*
X222262869Y-93968962D02*
X222281417Y-93942872D01*
X221988689Y-88551876D02*
X222018164Y-88538549D01*
X216917513Y-90754709D02*
X216923776Y-91002343D01*
X220275997Y-89157380D02*
X220295020Y-89130084D01*
X225088827Y-87309158D02*
X224941389Y-87171262D01*
X218016441Y-87693754D02*
X217873577Y-87875542D01*
X219085576Y-92618855D02*
X219080243Y-92650421D01*
X222281396Y-87566652D02*
X222262846Y-87540566D01*
X221831004Y-88596508D02*
X221863777Y-88590655D01*
X217295703Y-88881616D02*
X217209535Y-89100142D01*
X219074146Y-92714026D02*
X219073381Y-92745947D01*
X226206017Y-88985413D02*
X226126552Y-88796494D01*
X218569246Y-91323830D02*
X218597112Y-91339849D01*
X221412573Y-92985673D02*
X221384712Y-93001693D01*
X220104873Y-93301610D02*
X220132179Y-93282571D01*
X221104724Y-93799617D02*
X221116641Y-93829836D01*
X219989216Y-92129216D02*
X219958958Y-92117801D01*
X219928608Y-88125950D02*
X219897574Y-88117571D01*
X219856664Y-86320736D02*
X219643503Y-86417106D01*
X219135459Y-88483620D02*
X219122518Y-88513406D01*
X222152901Y-93057302D02*
X222127766Y-93037550D01*
X224465753Y-94713922D02*
X224788245Y-94470008D01*
X219576289Y-90822777D02*
X219578859Y-90788968D01*
X225628685Y-90485152D02*
X225641796Y-90442742D01*
X221067764Y-87870704D02*
X221065194Y-87904501D01*
X220385582Y-88605613D02*
X220377208Y-88574580D01*
X219092832Y-88605375D02*
X219085982Y-88636703D01*
X219183506Y-89129927D02*
X219202548Y-89157230D01*
X222786358Y-86058939D02*
X222580750Y-86017577D01*
X219447549Y-90356788D02*
X219427797Y-90331653D01*
X219959287Y-88135852D02*
X219928608Y-88125950D01*
X219039243Y-94745139D02*
X219234490Y-94870314D01*
X225842728Y-88255704D02*
X225733650Y-88084770D01*
X221064328Y-87938749D02*
X221064328Y-87938749D01*
X219514119Y-91043293D02*
X219527443Y-91013812D01*
X218400812Y-90331569D02*
X218381056Y-90356702D01*
X226032299Y-89934056D02*
X226069089Y-89910787D01*
X220209671Y-88293502D02*
X220209671Y-88293502D01*
X221259253Y-94041360D02*
X221282361Y-94063395D01*
X222222210Y-94018248D02*
X222243120Y-93994102D01*
X219576289Y-90686731D02*
X219572059Y-90653455D01*
X220376812Y-92556413D02*
X220366911Y-92525734D01*
X219643738Y-89422515D02*
X219675476Y-89426328D01*
X221085290Y-88105050D02*
X221094260Y-88136627D01*
X221072003Y-93672161D02*
X221077857Y-93704929D01*
X221160678Y-93225725D02*
X221144654Y-93253593D01*
X221729649Y-88604176D02*
X221729649Y-88604176D01*
X219770773Y-92081268D02*
X219738855Y-92080506D01*
X221259243Y-87468214D02*
X221237210Y-87491321D01*
X219483406Y-91099856D02*
X219499426Y-91071988D01*
X222046819Y-92985673D02*
X222018129Y-92970980D01*
X218494167Y-94316846D02*
X218668779Y-94468102D01*
X222101679Y-93018999D02*
X222074683Y-93001693D01*
X221306504Y-94084311D02*
X221331639Y-94104068D01*
X220392431Y-88891104D02*
X220397760Y-88859543D01*
X221661644Y-87276783D02*
X221628356Y-87281013D01*
X225656746Y-90401173D02*
X225673486Y-90360493D01*
X221216295Y-93147500D02*
X221196540Y-93172637D01*
X220392046Y-92618774D02*
X220385191Y-92587446D01*
X220397377Y-92841367D02*
X220401185Y-92809628D01*
X219173334Y-91367881D02*
X219202813Y-91354564D01*
X219572059Y-90856092D02*
X219576289Y-90822777D01*
X220367310Y-88543901D02*
X220355889Y-88513635D01*
X216917513Y-90754709D02*
X216917513Y-90754709D01*
X221144666Y-88255931D02*
X221160690Y-88283797D01*
X221927522Y-87303250D02*
X221895946Y-87294287D01*
X222391589Y-93638860D02*
X222394158Y-93605069D01*
X221695423Y-94235416D02*
X221729649Y-94236282D01*
X217873577Y-87875542D02*
X217739406Y-88064208D01*
X218668779Y-94468102D02*
X218850572Y-94610967D01*
X221237221Y-88386167D02*
X221259253Y-88409277D01*
X219611771Y-92092683D02*
X219580443Y-92099534D01*
X221129957Y-87650240D02*
X221116630Y-87679716D01*
X219865932Y-92092686D02*
X219834371Y-92087358D01*
X218542247Y-90203085D02*
X218516157Y-90221633D01*
X219706818Y-93410536D02*
X219738739Y-93411294D01*
X221077850Y-93436690D02*
X221071997Y-93469465D01*
X225600855Y-90892396D02*
X225595576Y-90847066D01*
X220209248Y-93216313D02*
X220232859Y-93191489D01*
X221065196Y-93605069D02*
X221067768Y-93638860D01*
X222222182Y-93123356D02*
X222200151Y-93100247D01*
X218269796Y-90921071D02*
X218278764Y-90952646D01*
X219143113Y-91379786D02*
X219173334Y-91367881D01*
X219518604Y-93374010D02*
X219549282Y-93383904D01*
X217209535Y-92409312D02*
X217295703Y-92627846D01*
X218381056Y-90356702D02*
X218362502Y-90382787D01*
X221500943Y-94195898D02*
X221531852Y-94206361D01*
X219458981Y-88160162D02*
X219429724Y-88174625D01*
X221331639Y-88471979D02*
X221357724Y-88490532D01*
X222298720Y-93915872D02*
X222314738Y-93888005D01*
X221196540Y-87540599D02*
X221177987Y-87566687D01*
X219143113Y-90129861D02*
X219112191Y-90119396D01*
X219466100Y-90382872D02*
X219447549Y-90356788D01*
X226310702Y-89806398D02*
X226354004Y-89795313D01*
X220403470Y-92713937D02*
X220401185Y-92682079D01*
X218812945Y-91412449D02*
X218846243Y-91416670D01*
X220184847Y-88269893D02*
X220159136Y-88247807D01*
X220254947Y-92325853D02*
X220232859Y-92300132D01*
X219231506Y-90169807D02*
X219202813Y-90155108D01*
X221237210Y-93123356D02*
X221216295Y-93147500D01*
X219183418Y-88397698D02*
X219165909Y-88425706D01*
X218248844Y-90754789D02*
X218248844Y-90754789D01*
X225088799Y-94200433D02*
X225365796Y-93906814D01*
X218747987Y-90110411D02*
X218716412Y-90119376D01*
X221563418Y-94215329D02*
X221595601Y-94222760D01*
X220232859Y-92300132D02*
X220209248Y-92275296D01*
X220328502Y-89073419D02*
X220342961Y-89044168D01*
X220209248Y-93216313D02*
X220209248Y-93216313D01*
X221729728Y-85942547D02*
X221729728Y-85942547D01*
X218269796Y-90588503D02*
X218262365Y-90620694D01*
X218948523Y-91419230D02*
X218982325Y-91416672D01*
X219135085Y-92465756D02*
X219122137Y-92495548D01*
X226069089Y-89910787D02*
X226106952Y-89889116D01*
X219202006Y-93139378D02*
X219222559Y-93165915D01*
X221729728Y-95567030D02*
X221729728Y-95567030D01*
X222387359Y-93672161D02*
X222391589Y-93638860D01*
X221531849Y-87303257D02*
X221500940Y-87313717D01*
X219076433Y-92682165D02*
X219074146Y-92714026D01*
X221988689Y-94183981D02*
X222018164Y-94170654D01*
X219286373Y-90203144D02*
X219259374Y-90185833D01*
X219989139Y-93362539D02*
X220018930Y-93349591D01*
X221797698Y-88600740D02*
X221831004Y-88596508D01*
X225836717Y-91404976D02*
X225808788Y-91371833D01*
X225230376Y-87453066D02*
X225088827Y-87309158D01*
X220328066Y-93055258D02*
X220342538Y-93026003D01*
X219436011Y-94986192D02*
X219643503Y-95092468D01*
X220404612Y-88764028D02*
X220403852Y-88732109D01*
X219345298Y-93282669D02*
X219372605Y-93301699D01*
X221282352Y-87446183D02*
X221259243Y-87468214D01*
X221470729Y-92957656D02*
X221441260Y-92970980D01*
X219244754Y-92300252D02*
X219222668Y-92325963D01*
X225641780Y-91066706D02*
X225628672Y-91024275D01*
X225733928Y-91265268D02*
X225712109Y-91227525D01*
X222101679Y-87386949D02*
X222074683Y-87369646D01*
X226268186Y-89819366D02*
X226310702Y-89806398D01*
X219738739Y-93411294D02*
X219770660Y-93410530D01*
X221958439Y-87313708D02*
X221927522Y-87303250D01*
X220158717Y-93262008D02*
X220184426Y-93239922D01*
X218850572Y-94610967D02*
X219039243Y-94745139D01*
X221129969Y-93859312D02*
X221144666Y-93888005D01*
X222381507Y-93436690D02*
X222374077Y-93404490D01*
X219100772Y-92935399D02*
X219110666Y-92966077D01*
X221384712Y-93001693D02*
X221357717Y-93018999D01*
X218262365Y-90620694D02*
X218256512Y-90653459D01*
X217133875Y-89323733D02*
X217069025Y-89552086D01*
X219048409Y-91406612D02*
X219080609Y-91399193D01*
X222329429Y-88227216D02*
X222342750Y-88197741D01*
X221216306Y-88362023D02*
X221237221Y-88386167D01*
X219372605Y-93301699D02*
X219400621Y-93319206D01*
X222354652Y-87709903D02*
X222342739Y-87679683D01*
X220275931Y-88370583D02*
X220255368Y-88344042D01*
X218248844Y-90754789D02*
X218249710Y-90789027D01*
X219458547Y-93349653D02*
X219488339Y-93362592D01*
X221160690Y-93915872D02*
X221177999Y-93942872D01*
X219865832Y-93399100D02*
X219897162Y-93392244D01*
X220759945Y-86040329D02*
X220527134Y-86094066D01*
X221237221Y-94018248D02*
X221259253Y-94041360D01*
X222329415Y-93282286D02*
X222314722Y-93253593D01*
X221927552Y-94206361D02*
X221958471Y-94195898D01*
X222074718Y-94139932D02*
X222101714Y-94122622D01*
X219268813Y-89234281D02*
X219293634Y-89257904D01*
X219612068Y-88110690D02*
X219580741Y-88117540D01*
X219834763Y-89422534D02*
X219866326Y-89417205D01*
X221628357Y-88596509D02*
X221661645Y-88600741D01*
X218329168Y-90437642D02*
X218314471Y-90466330D01*
X219149923Y-88454366D02*
X219135459Y-88483620D01*
X219406884Y-91202223D02*
X219427797Y-91178081D01*
X220376812Y-92935281D02*
X220385191Y-92904252D01*
X219111100Y-88543667D02*
X219101204Y-88574343D01*
X221104713Y-87709934D02*
X221094250Y-87740853D01*
X221895946Y-87294287D02*
X221863754Y-87286861D01*
X219268363Y-92275428D02*
X219268363Y-92275428D01*
X219549826Y-89401935D02*
X219580854Y-89410319D01*
X219318893Y-92229735D02*
X219293184Y-92251820D01*
X225733650Y-88084770D02*
X225617674Y-87918837D01*
X221958439Y-92945744D02*
X221927522Y-92935284D01*
X222314722Y-87621514D02*
X222298702Y-87593649D01*
X221282361Y-88431310D02*
X221306504Y-88452225D01*
X220077271Y-88190688D02*
X220048603Y-88174694D01*
X226277456Y-92331313D02*
X226340890Y-92134621D01*
X221196552Y-93968962D02*
X221216306Y-93994102D01*
X226396012Y-91934342D02*
X226442619Y-91730678D01*
X221863777Y-88590655D02*
X221895973Y-88583223D01*
X218982325Y-91416672D02*
X219015634Y-91412452D01*
X218716412Y-90119376D02*
X218685495Y-90129835D01*
X219074576Y-88795718D02*
X219076863Y-88827581D01*
X220159246Y-89280113D02*
X220184967Y-89258025D01*
X219539355Y-90526073D02*
X219527443Y-90495868D01*
X218685495Y-91379769D02*
X218716412Y-91390224D01*
X220367314Y-88984128D02*
X220377208Y-88953456D01*
X221071997Y-87837399D02*
X221067764Y-87870704D01*
X219080674Y-88859325D02*
X219086007Y-88890892D01*
X225757346Y-91301932D02*
X225733928Y-91265268D01*
X221067768Y-88006785D02*
X221072003Y-88040087D01*
X219076851Y-88700012D02*
X219074569Y-88731874D01*
X219897574Y-88117571D02*
X219866245Y-88110716D01*
X221160690Y-88283797D02*
X221177999Y-88310796D01*
X219202813Y-90155108D02*
X219173334Y-90141779D01*
X218716412Y-91390224D02*
X218747987Y-91399183D01*
X219112191Y-90119396D02*
X219080609Y-90110426D01*
X219101243Y-88953257D02*
X219111146Y-88983936D01*
X221064328Y-93570828D02*
X221064328Y-93570828D01*
X224296794Y-86683832D02*
X224122944Y-86579023D01*
D13*
X222000000Y-85509644D02*
X222266724Y-85529926D01*
X222529570Y-85563326D01*
X222788208Y-85609514D01*
X223042307Y-85668160D01*
X223291538Y-85738934D01*
X223535571Y-85821506D01*
X223774076Y-85915546D01*
X224006722Y-86020723D01*
X224233181Y-86136709D01*
X224453121Y-86263172D01*
X224666214Y-86399783D01*
X224872128Y-86546212D01*
X225070534Y-86702128D01*
X225261103Y-86867202D01*
X225443503Y-87041104D01*
X225617405Y-87223503D01*
X225782479Y-87414070D01*
X225938395Y-87612475D01*
X226084824Y-87818387D01*
X226221434Y-88031476D01*
X226347896Y-88251413D01*
X226463881Y-88477868D01*
X226569057Y-88710510D01*
X226663096Y-88949009D01*
X226745667Y-89193036D01*
X226816440Y-89442260D01*
X226875085Y-89696351D01*
X226921272Y-89954980D01*
X226954672Y-90217815D01*
X226974953Y-90484528D01*
X226981787Y-90754789D01*
X226974953Y-91025042D01*
X226954672Y-91291749D01*
X226921272Y-91554579D01*
X226875085Y-91813202D01*
X226816440Y-92067289D01*
X226745667Y-92316510D01*
X226663096Y-92560533D01*
X226569057Y-92799030D01*
X226463881Y-93031670D01*
X226347896Y-93258123D01*
X226221434Y-93478059D01*
X226084824Y-93691147D01*
X225938395Y-93897059D01*
X225782479Y-94095463D01*
X225617405Y-94286031D01*
X225443503Y-94468430D01*
X225261103Y-94642333D01*
X225070534Y-94807408D01*
X224872128Y-94963325D01*
X224666214Y-95109755D01*
X224453121Y-95246368D01*
X224233181Y-95372832D01*
X224006722Y-95488819D01*
X223774076Y-95593998D01*
X223535571Y-95688039D01*
X223291538Y-95770612D01*
X223042307Y-95841388D01*
X222788208Y-95900035D01*
X222529570Y-95946224D01*
X222266724Y-95979624D01*
X222000000Y-95999907D01*
X221729728Y-96006741D01*
X221459472Y-95999907D01*
X221192763Y-95979624D01*
X220929929Y-95946224D01*
X220671302Y-95900035D01*
X220417212Y-95841388D01*
X220167988Y-95770612D01*
X219923960Y-95688039D01*
X219685459Y-95593998D01*
X219452815Y-95488819D01*
X219226358Y-95372832D01*
X219006418Y-95246368D01*
X218793324Y-95109755D01*
X218587408Y-94963325D01*
X218388999Y-94807408D01*
X218198428Y-94642333D01*
X218016024Y-94468430D01*
X217842117Y-94286031D01*
X217677038Y-94095463D01*
X217521116Y-93897059D01*
X217374682Y-93691147D01*
X217238066Y-93478059D01*
X217111598Y-93258123D01*
X216995608Y-93031670D01*
X216890426Y-92799030D01*
X216796382Y-92560533D01*
X216713806Y-92316510D01*
X216643029Y-92067289D01*
X216584380Y-91813202D01*
X216538189Y-91554579D01*
X216504788Y-91291749D01*
X216484504Y-91025042D01*
X216477670Y-90754789D01*
X216484504Y-90484524D01*
X216504788Y-90217807D01*
X216538189Y-89954967D01*
X216584380Y-89696336D01*
X216643029Y-89442242D01*
X216713806Y-89193016D01*
X216796382Y-88948988D01*
X216890426Y-88710487D01*
X216995608Y-88477844D01*
X217111598Y-88251390D01*
X217238066Y-88031452D01*
X217374682Y-87818363D01*
X217521116Y-87612452D01*
X217677038Y-87414048D01*
X217842117Y-87223482D01*
X218016024Y-87041084D01*
X218198428Y-86867183D01*
X218388999Y-86702111D01*
X218587408Y-86546196D01*
X218793324Y-86399769D01*
X219006418Y-86263159D01*
X219226358Y-86136698D01*
X219452815Y-86020714D01*
X219685459Y-85915538D01*
X219923960Y-85821500D01*
X220167988Y-85738929D01*
X220417212Y-85668157D01*
X220671302Y-85609512D01*
X220929929Y-85563325D01*
X221192763Y-85529925D01*
X221459472Y-85509644D01*
X221729728Y-85502810D01*
X222000000Y-85509644D01*
D12*
X221357717Y-87386970D02*
X221331631Y-87405519D01*
X219080609Y-90110426D02*
X219048409Y-90102993D01*
X218846243Y-90092902D02*
X218812945Y-90097133D01*
X219318761Y-93262117D02*
X219345298Y-93282669D01*
X220076857Y-93319127D02*
X220104873Y-93301610D01*
X222018164Y-88538549D02*
X222046855Y-88523852D01*
X223382797Y-86234046D02*
X223187584Y-86167376D01*
X219429855Y-89353161D02*
X219459109Y-89367640D01*
X220077361Y-89337237D02*
X220105384Y-89319719D01*
X218668779Y-87041441D02*
X218494167Y-87192689D01*
X226341022Y-89375022D02*
X226277574Y-89178323D01*
X221863754Y-92918891D02*
X221830986Y-92913040D01*
X217739406Y-88064208D02*
X217614231Y-88259451D01*
X221306504Y-88452225D02*
X221331639Y-88471979D01*
X219427797Y-90331653D02*
X219406884Y-90307511D01*
X219165549Y-92407828D02*
X219149555Y-92436496D01*
X224122936Y-94930558D02*
X224296784Y-94825751D01*
X220342538Y-93026003D02*
X220355486Y-92996216D01*
X221357717Y-93018999D02*
X221331631Y-93037550D01*
X219580741Y-88117540D02*
X219549709Y-88125911D01*
X219771076Y-88099285D02*
X219739156Y-88098521D01*
X219293184Y-92251820D02*
X219268363Y-92275428D01*
X219566208Y-90620709D02*
X219558780Y-90588535D01*
X225617459Y-90528356D02*
X225628685Y-90485152D01*
X225962132Y-89985201D02*
X225996631Y-89958877D01*
X219135521Y-89043991D02*
X219149993Y-89073248D01*
X219458679Y-92142168D02*
X219429420Y-92156634D01*
X220403852Y-88732109D02*
X220401569Y-88700249D01*
X221104724Y-88167545D02*
X221116641Y-88197763D01*
X217209535Y-89100142D02*
X217133875Y-89323733D01*
X219558780Y-90588535D02*
X219549815Y-90556976D01*
X221067768Y-93638860D02*
X221072003Y-93672161D01*
X219092864Y-88922223D02*
X219101243Y-88953257D01*
X225608168Y-90572307D02*
X225617459Y-90528356D01*
X219149993Y-89073248D02*
X219165988Y-89101914D01*
X218289227Y-90983562D02*
X218301143Y-91013779D01*
X219928285Y-92107908D02*
X219897257Y-92099536D01*
X226145841Y-89869092D02*
X226185708Y-89850760D01*
X218289227Y-90526016D02*
X218278764Y-90556930D01*
X219429289Y-93335191D02*
X219458547Y-93349653D01*
X220397763Y-88668507D02*
X220392434Y-88636942D01*
X219549282Y-93383904D02*
X219580316Y-93392276D01*
X219361743Y-90262369D02*
X219337599Y-90241454D01*
X217498354Y-93048509D02*
X217614231Y-93250035D01*
X222387359Y-88040075D02*
X222391589Y-88006776D01*
X221500943Y-88563798D02*
X221531852Y-88574260D01*
X223187584Y-86167376D02*
X222988703Y-86108940D01*
X219202813Y-91354564D02*
X219231506Y-91339878D01*
X226185574Y-91658862D02*
X226145712Y-91640526D01*
X226205910Y-92524217D02*
X226277456Y-92331313D01*
X226032189Y-91575548D02*
X225996527Y-91550722D01*
X226226506Y-89834169D02*
X226268186Y-89819366D01*
X221895946Y-92926319D02*
X221863754Y-92918891D01*
X219122083Y-92996340D02*
X219135023Y-93026131D01*
X221863777Y-94222760D02*
X221895973Y-94215329D01*
X219222668Y-92325963D02*
X219202105Y-92352502D01*
X219080243Y-92650421D02*
X219076433Y-92682165D01*
X226442619Y-91730678D02*
X226397889Y-91723493D01*
X222395023Y-93570828D02*
X222395023Y-93570828D01*
X222127800Y-94104068D02*
X222152934Y-94084311D01*
X222365119Y-88136607D02*
X222374082Y-88105032D01*
X225733971Y-90244259D02*
X225757395Y-90207607D01*
X219076421Y-92809729D02*
X219080224Y-92841472D01*
X220312071Y-92407739D02*
X220294553Y-92379715D01*
X220158740Y-92229651D02*
X220132213Y-92209109D01*
X221563417Y-87294292D02*
X221531849Y-87303257D01*
X222200151Y-93100247D02*
X222177044Y-93078215D01*
X219401192Y-89337158D02*
X219429855Y-89353161D01*
X220355898Y-89014385D02*
X220367314Y-88984128D01*
X220294553Y-92379715D02*
X220275512Y-92352400D01*
X221563418Y-88583227D02*
X221595601Y-88590657D01*
X221441264Y-94170654D02*
X221470733Y-94183981D01*
X222281396Y-93198726D02*
X222262846Y-93172637D01*
X221763892Y-92906240D02*
X221729649Y-92905375D01*
X219572059Y-90653455D02*
X219566208Y-90620709D01*
X222314722Y-93253593D02*
X222298702Y-93225725D01*
X218516157Y-91287976D02*
X218542247Y-91306525D01*
X219707332Y-89428617D02*
X219739248Y-89429381D01*
X225896751Y-91467409D02*
X225866054Y-91436850D01*
X222177075Y-88431292D02*
X222200181Y-88409258D01*
X220132596Y-88227244D02*
X220105289Y-88208205D01*
X219675375Y-88101560D02*
X219643633Y-88105364D01*
X219612177Y-89417179D02*
X219643738Y-89422515D01*
X220298782Y-86158914D02*
X220075191Y-86234572D01*
X221064328Y-87938749D02*
X221065196Y-87972992D01*
X226068972Y-91598822D02*
X226032189Y-91575548D01*
X222243120Y-88362001D02*
X222262869Y-88336862D01*
X222262846Y-87540566D02*
X222243094Y-87515431D01*
X219092432Y-92587526D02*
X219085576Y-92618855D01*
X220312521Y-89102077D02*
X220328502Y-89073419D01*
X219092400Y-92904366D02*
X219100772Y-92935399D01*
X221384712Y-87369664D02*
X221357717Y-87386970D01*
X225641796Y-90442742D02*
X225656746Y-90401173D01*
X220355486Y-92495468D02*
X220342538Y-92465674D01*
X219312462Y-91288017D02*
X219337599Y-91268269D01*
X217015287Y-91724535D02*
X217069025Y-91957355D01*
X222046855Y-94155957D02*
X222074718Y-94139932D01*
X220048251Y-92156609D02*
X220019000Y-92142152D01*
X220019000Y-92142152D02*
X219989216Y-92129216D01*
X226442778Y-89778979D02*
X226442778Y-89778979D01*
X222152934Y-94084311D02*
X222177075Y-94063395D01*
X220312485Y-88425912D02*
X220294970Y-88397893D01*
X221729649Y-87273348D02*
X221729649Y-87273348D01*
X218443762Y-90284323D02*
X218421728Y-90307428D01*
X220255453Y-89183906D02*
X220275997Y-89157380D01*
X222243094Y-87515431D02*
X222222182Y-87491290D01*
X225365796Y-93906814D02*
X225617622Y-93590766D01*
X219834371Y-92087358D02*
X219802631Y-92083552D01*
X219643503Y-86417106D02*
X219436011Y-86523377D01*
X218655278Y-91367860D02*
X218685495Y-91379769D01*
X219643633Y-88105364D02*
X219612068Y-88110690D01*
X219076863Y-88827581D02*
X219080674Y-88859325D01*
X225996527Y-91550722D02*
X225962035Y-91524393D01*
X220209803Y-89234414D02*
X220233388Y-89209604D01*
X219122518Y-88513406D02*
X219111100Y-88543667D01*
X219337599Y-91268269D02*
X219361743Y-91247359D01*
X225673486Y-90360493D02*
X225691969Y-90320749D01*
X221729649Y-88604176D02*
X221729649Y-88604176D01*
X217873577Y-93633961D02*
X218016441Y-93815757D01*
X222222182Y-87491290D02*
X222200151Y-87468184D01*
X222354661Y-88167524D02*
X222365119Y-88136607D01*
X219286373Y-91306563D02*
X219312462Y-91288017D01*
X226397889Y-91723493D02*
X226353851Y-91714331D01*
X219549815Y-90952662D02*
X219558780Y-90921076D01*
X219406884Y-90307511D02*
X219384852Y-90284402D01*
X222372081Y-85985055D02*
X222160553Y-85961574D01*
X219499426Y-90437722D02*
X219483406Y-90409864D01*
X222127800Y-88471964D02*
X222152934Y-88452208D01*
X221500940Y-92945744D02*
X221470729Y-92957656D01*
X220104917Y-92190088D02*
X220076909Y-92172588D01*
X220392046Y-92872928D02*
X220397377Y-92841367D01*
X222381510Y-93704929D02*
X222387359Y-93672161D01*
X221830986Y-92913040D02*
X221797685Y-92908809D01*
X219345741Y-88227146D02*
X219319206Y-88247698D01*
X222298720Y-88283774D02*
X222314738Y-88255908D01*
X219802522Y-93408243D02*
X219834266Y-93404433D01*
X219834680Y-88105383D02*
X219802937Y-88101573D01*
X221988655Y-92957656D02*
X221958439Y-92945744D01*
X221384718Y-94139932D02*
X221412578Y-94155957D01*
X222374082Y-88105032D02*
X222381510Y-88072841D01*
X226340890Y-92134621D02*
X226396012Y-91934342D01*
X219488339Y-93362592D02*
X219518604Y-93374010D01*
X219539355Y-90983588D02*
X219549815Y-90952662D01*
X225495002Y-87758107D02*
X225365835Y-87602783D01*
X225808851Y-90137726D02*
X225836786Y-90104592D01*
X221144654Y-87621549D02*
X221129957Y-87650240D01*
X219706936Y-92081267D02*
X219675077Y-92083550D01*
X219897654Y-89410351D02*
X219928687Y-89401974D01*
X225896834Y-90042173D02*
X225928851Y-90012982D01*
X219223004Y-88343874D02*
X219202450Y-88370401D01*
X221927552Y-88574255D02*
X221958471Y-88563792D01*
X225656725Y-91108293D02*
X225641780Y-91066706D01*
X218625803Y-90155070D02*
X218597112Y-90169761D01*
X219234490Y-86639249D02*
X219039243Y-86764418D01*
X221946368Y-95562239D02*
X222160553Y-95548003D01*
X219293634Y-89257904D02*
X219319341Y-89280004D01*
X224788245Y-94470008D02*
X225088799Y-94200433D01*
X225691969Y-90320749D02*
X225712146Y-90281989D01*
X222394158Y-93536576D02*
X222391588Y-93502774D01*
X225782315Y-91337469D02*
X225757346Y-91301932D01*
X220075191Y-95275010D02*
X220298782Y-95350670D01*
X222342739Y-93311765D02*
X222329415Y-93282286D01*
X221077857Y-88072856D02*
X221085290Y-88105050D01*
X219039243Y-86764418D02*
X218850572Y-86898583D01*
X222786357Y-95450638D02*
X222988702Y-95400638D01*
X223187582Y-95342202D02*
X223382795Y-95275533D01*
X221196552Y-88336885D02*
X221216306Y-88362023D01*
X222394158Y-87904494D02*
X222391588Y-87870691D01*
X219989551Y-88147276D02*
X219959287Y-88135852D01*
X222046819Y-87353629D02*
X222018129Y-87338939D01*
X219488469Y-92129225D02*
X219458679Y-92142168D01*
X222395023Y-93570828D02*
X222394158Y-93536576D01*
X218381056Y-91152893D02*
X218400812Y-91178029D01*
X219527443Y-91013812D02*
X219539355Y-90983588D01*
X219015634Y-91412452D02*
X219048409Y-91406612D01*
X221412578Y-94155957D02*
X221441264Y-94170654D01*
X223761411Y-95118301D02*
X223944411Y-95028142D01*
X219928687Y-89401974D02*
X219959366Y-89392074D01*
X219400753Y-92172624D02*
X219372737Y-92190137D01*
X222074718Y-88507828D02*
X222101714Y-88490518D01*
X217133875Y-92185714D02*
X217209535Y-92409312D01*
X221946368Y-85947338D02*
X221729728Y-85942547D01*
X220403470Y-92777771D02*
X220404232Y-92745854D01*
X221177999Y-88310796D02*
X221196552Y-88336885D01*
X218345192Y-91099808D02*
X218362502Y-91126805D01*
X221412573Y-87353644D02*
X221384712Y-87369664D01*
X222243094Y-93147500D02*
X222222182Y-93123356D01*
X219080655Y-88668268D02*
X219076851Y-88700012D01*
X219989632Y-89380650D02*
X220019425Y-89367702D01*
X219259374Y-91323864D02*
X219286373Y-91306563D01*
X221661645Y-88600741D02*
X221695423Y-88603310D01*
X226354004Y-89795313D02*
X226398045Y-89786157D01*
X219499426Y-91071988D02*
X219514119Y-91043293D01*
X226268042Y-91690266D02*
X226226366Y-91675458D01*
X220233388Y-89209604D02*
X220255453Y-89183906D01*
X219834266Y-93404433D02*
X219865832Y-93399100D01*
X219958874Y-93373963D02*
X219989139Y-93362539D01*
X222074683Y-93001693D02*
X222046819Y-92985673D01*
X221470729Y-87325629D02*
X221441260Y-87338952D01*
X225691937Y-91188751D02*
X225673460Y-91148991D01*
X220295020Y-89130084D02*
X220312521Y-89102077D01*
X220076909Y-92172588D02*
X220048251Y-92156609D01*
X218167695Y-93990371D02*
X218327038Y-94157502D01*
X221237733Y-85967401D02*
X220996912Y-85998007D01*
X221216306Y-93994102D02*
X221237221Y-94018248D01*
X226442619Y-91730678D02*
X226442619Y-91730678D01*
X222298702Y-93225725D02*
X222281396Y-93198726D01*
X219110666Y-92966077D02*
X219122083Y-92996340D01*
X219268230Y-93216445D02*
X219268230Y-93216445D01*
X219771165Y-89428623D02*
X219803023Y-89426340D01*
X222281417Y-88310773D02*
X222298720Y-88283774D01*
X219959366Y-89392074D02*
X219989632Y-89380650D01*
X225928851Y-90012982D02*
X225962132Y-89985201D01*
X221331631Y-87405519D02*
X221306495Y-87425271D01*
X217069025Y-89552086D02*
X217015287Y-89784900D01*
X219739248Y-89429381D02*
X219771165Y-89428623D01*
X226145712Y-91640526D02*
X226106829Y-91620497D01*
X225842660Y-93253906D02*
X225944629Y-93078177D01*
X224122944Y-86579023D02*
X223944417Y-86481438D01*
X218167695Y-87519148D02*
X218016441Y-87693754D01*
X219580316Y-93392276D02*
X219611646Y-93399125D01*
X220401569Y-88700249D02*
X220397763Y-88668507D01*
X221129957Y-93282286D02*
X221116630Y-93311765D01*
X221595600Y-87286864D02*
X221563417Y-87294292D01*
X219466100Y-91126856D02*
X219483406Y-91099856D01*
X219268680Y-88293370D02*
X219268680Y-88293370D01*
X219074569Y-88731874D02*
X219073811Y-88763796D01*
X221729649Y-88604176D02*
X221763899Y-88603310D01*
X221595601Y-94222760D02*
X221628357Y-94228613D01*
X221531849Y-92935284D02*
X221500940Y-92945744D01*
X222365112Y-87740824D02*
X222354652Y-87709903D01*
X220397760Y-88859543D02*
X220401566Y-88827803D01*
X222354661Y-93799617D02*
X222365119Y-93768699D01*
X221729728Y-95567030D02*
X221946368Y-95562239D01*
X222262869Y-88336862D02*
X222281417Y-88310773D01*
X219958958Y-92117801D02*
X219928285Y-92107908D01*
X222314738Y-88255908D02*
X222329429Y-88227216D01*
X217069025Y-91957355D02*
X217133875Y-92185714D01*
X219373045Y-88208116D02*
X219345741Y-88227146D01*
X226398045Y-89786157D02*
X226442778Y-89778979D01*
X219202105Y-92352502D02*
X219183065Y-92379810D01*
X219928196Y-93383865D02*
X219958874Y-93373963D01*
X219675077Y-92083550D02*
X219643335Y-92087355D01*
X219202548Y-89157230D02*
X219223113Y-89183763D01*
X222374077Y-87772406D02*
X222365112Y-87740824D01*
X219770660Y-93410530D02*
X219802522Y-93408243D01*
X219488894Y-89380596D02*
X219519153Y-89392028D01*
X220105289Y-88208205D02*
X220077271Y-88190688D01*
X220209671Y-88293502D02*
X220184847Y-88269893D01*
X222101714Y-88490518D02*
X222127800Y-88471964D01*
X216942360Y-90262698D02*
X216923776Y-90507078D01*
X216923776Y-91002343D02*
X216942360Y-91246727D01*
X225673460Y-91148991D02*
X225656725Y-91108293D01*
X220355889Y-88513635D02*
X220342945Y-88483842D01*
X222262846Y-93172637D02*
X222243094Y-93147500D01*
X221412578Y-88523863D02*
X221441264Y-88538558D01*
X226039295Y-92897851D02*
X226126456Y-92713131D01*
X220328477Y-88454582D02*
X220312485Y-88425912D01*
X226277574Y-89178323D02*
X226206017Y-88985413D01*
X218491019Y-91268224D02*
X218516157Y-91287976D01*
X219101204Y-88574343D02*
X219092832Y-88605375D01*
X219549815Y-90556976D02*
X219539355Y-90526073D01*
X221177987Y-87566687D02*
X221160678Y-87593684D01*
X226353851Y-91714331D02*
X226310552Y-91703239D01*
X218625803Y-91354539D02*
X218655278Y-91367860D01*
X219897162Y-93392244D02*
X219928196Y-93383865D01*
X220328066Y-92436411D02*
X220312071Y-92407739D01*
X219149485Y-93055389D02*
X219165470Y-93084056D01*
X222391588Y-87870691D02*
X222387357Y-87837381D01*
X221729649Y-87273348D02*
X221695423Y-87274214D01*
X219268230Y-93216445D02*
X219268230Y-93216445D01*
X220048603Y-88174694D02*
X220019343Y-88160224D01*
X218327038Y-94157502D02*
X218494167Y-94316846D01*
X219100811Y-92556492D02*
X219092432Y-92587526D01*
X222374077Y-93404490D02*
X222365112Y-93372908D01*
X222018129Y-87338939D02*
X221988655Y-87325618D01*
X221482106Y-85948814D02*
X221237733Y-85967401D01*
X221729649Y-94236282D02*
X221763899Y-94235416D01*
X226039381Y-88611769D02*
X225944705Y-88431438D01*
X219739156Y-88098521D02*
X219707236Y-88099279D01*
X221077857Y-93704929D02*
X221085290Y-93737122D01*
X218327038Y-87352026D02*
X218167695Y-87519148D01*
X221144666Y-93888005D02*
X221160690Y-93915872D01*
X218252280Y-90686758D02*
X218249710Y-90720548D01*
X218345192Y-90409781D02*
X218329168Y-90437642D01*
X219643212Y-93404451D02*
X219674956Y-93408255D01*
X221482106Y-95560768D02*
X221729728Y-95567030D01*
X218597112Y-90169761D02*
X218569246Y-90185780D01*
X218914271Y-91420083D02*
X218948523Y-91419230D01*
X219259374Y-90185833D02*
X219231506Y-90169807D01*
X222018129Y-92970980D02*
X221988655Y-92957656D01*
X219643503Y-95092468D02*
X219856664Y-95188842D01*
X220298782Y-95350670D02*
X220527134Y-95415520D01*
X226126456Y-92713131D02*
X226205910Y-92524217D01*
X219674956Y-93408255D02*
X219706818Y-93410536D01*
X221500940Y-87313717D02*
X221470729Y-87325629D01*
X220209803Y-89234414D02*
X220209803Y-89234414D01*
X222152934Y-88452208D02*
X222177075Y-88431292D01*
X219372737Y-92190137D02*
X219345431Y-92209174D01*
X222365112Y-93372908D02*
X222354652Y-93341986D01*
X225782371Y-90172080D02*
X225808851Y-90137726D01*
X218846243Y-91416670D02*
X218880033Y-91419229D01*
X221729649Y-94236282D02*
X221729649Y-94236282D01*
X220184967Y-89258025D02*
X220209803Y-89234414D01*
X222988702Y-95400638D02*
X223187582Y-95342202D01*
X220401185Y-92809628D02*
X220403470Y-92777771D01*
X221441260Y-87338952D02*
X221412573Y-87353644D01*
X222988703Y-86108940D02*
X222786358Y-86058939D01*
X225365835Y-87602783D02*
X225230376Y-87453066D01*
X218248844Y-90754789D02*
X218248844Y-90754789D01*
X221958471Y-88563792D02*
X221988689Y-88551876D01*
X219268813Y-89234281D02*
X219268813Y-89234281D01*
X218494167Y-87192689D02*
X218327038Y-87352026D01*
X220132179Y-93282571D02*
X220158717Y-93262008D01*
X218880033Y-90090333D02*
X218846243Y-90092902D01*
X222152901Y-87425246D02*
X222127766Y-87405496D01*
X220342945Y-88483842D02*
X220328477Y-88454582D01*
X217614231Y-88259451D02*
X217498354Y-88460968D01*
X225996631Y-89958877D02*
X226032299Y-89934056D01*
X219111146Y-88983936D02*
X219122572Y-89014200D01*
X220996912Y-85998007D02*
X220759945Y-86040329D01*
X219566208Y-90888872D02*
X219572059Y-90856092D01*
X222381507Y-87804605D02*
X222374077Y-87772406D01*
X219401059Y-88190609D02*
X219373045Y-88208116D01*
X220342538Y-92465674D02*
X220328066Y-92436411D01*
X222101714Y-94122622D02*
X222127800Y-94104068D01*
X217614231Y-93250035D02*
X217739406Y-93445286D01*
X224465766Y-86795662D02*
X224296794Y-86683832D01*
X221927522Y-92935284D02*
X221895946Y-92926319D01*
X222329429Y-93859312D02*
X222342750Y-93829836D01*
X219384852Y-90284402D02*
X219361743Y-90262369D01*
X222281417Y-93942872D02*
X222298720Y-93915872D01*
X221661644Y-92908809D02*
X221628356Y-92913040D01*
X221763899Y-94235416D02*
X221797698Y-94232846D01*
X219085551Y-92873037D02*
X219092400Y-92904366D01*
X221441264Y-88538558D02*
X221470733Y-88551884D01*
X220403851Y-88795945D02*
X220404612Y-88764028D01*
X222381510Y-88072841D02*
X222387359Y-88040075D01*
X219384852Y-91225330D02*
X219406884Y-91202223D01*
X220255368Y-88344042D02*
X220233282Y-88318328D01*
X222342739Y-87679683D02*
X222329415Y-87650206D01*
X221958471Y-94195898D02*
X221988689Y-94183981D01*
X221797685Y-92908809D02*
X221763892Y-92906240D01*
X221216295Y-87515464D02*
X221196540Y-87540599D01*
X220105384Y-89319719D02*
X220132699Y-89300678D01*
X222160553Y-95548003D02*
X222372081Y-95524523D01*
X218516157Y-90221633D02*
X218491019Y-90241384D01*
X218914271Y-90089467D02*
X218914271Y-90089467D01*
X221830986Y-87281011D02*
X221797685Y-87276782D01*
X221470733Y-94183981D02*
X221500943Y-94195898D01*
X221094250Y-87740853D02*
X221085281Y-87772432D01*
X221595600Y-92918891D02*
X221563417Y-92926319D01*
X221357724Y-94122622D02*
X221384718Y-94139932D01*
X221988655Y-87325618D02*
X221958439Y-87313708D01*
X220159136Y-88247807D02*
X220132596Y-88227244D01*
X219373179Y-89319630D02*
X219401192Y-89337158D01*
X222200181Y-94041360D02*
X222222210Y-94018248D01*
X221695423Y-88603310D02*
X221729649Y-88604176D01*
X224941389Y-87171262D02*
X224788265Y-87039579D01*
X216917513Y-90754709D02*
X216917513Y-90754709D01*
X221085290Y-93737122D02*
X221094260Y-93768699D01*
X222394158Y-87972987D02*
X222395023Y-87938749D01*
X218301143Y-90495802D02*
X218289227Y-90526016D01*
X217498354Y-88460968D02*
X217392077Y-88668457D01*
X219436011Y-86523377D02*
X219234490Y-86639249D01*
X221563417Y-92926319D02*
X221531849Y-92935284D01*
X222074683Y-87369646D02*
X222046819Y-87353629D01*
X219802631Y-92083552D02*
X219770773Y-92081268D01*
X218443762Y-91225280D02*
X218466873Y-91247312D01*
X218301143Y-91013779D02*
X218314471Y-91043253D01*
X221628356Y-92913040D02*
X221595600Y-92918891D01*
X221695423Y-92906240D02*
X221661644Y-92908809D01*
X222387357Y-93469465D02*
X222381507Y-93436690D01*
X221065196Y-87972992D02*
X221067768Y-88006785D01*
X220366911Y-92965955D02*
X220376812Y-92935281D01*
X219074140Y-92777867D02*
X219076421Y-92809729D01*
X220048189Y-93335121D02*
X220076857Y-93319127D01*
X221306495Y-93057302D02*
X221282352Y-93078215D01*
X219268680Y-88293370D02*
X219245081Y-88318177D01*
X221895973Y-94215329D02*
X221927552Y-94206361D01*
X225836786Y-90104592D02*
X225866130Y-90072725D01*
X219707236Y-88099279D02*
X219675375Y-88101560D01*
X219244633Y-93191624D02*
X219268230Y-93216445D01*
X219856664Y-95188842D02*
X220075191Y-95275010D01*
X220342961Y-89044168D02*
X220355898Y-89014385D01*
X221116630Y-93311765D02*
X221104713Y-93341986D01*
X219048409Y-90102993D02*
X219015634Y-90097138D01*
X218329168Y-91071943D02*
X218345192Y-91099808D01*
X218569246Y-90185780D02*
X218542247Y-90203085D01*
X222127766Y-93037550D02*
X222101679Y-93018999D01*
X219579724Y-90754709D02*
X219578859Y-90720497D01*
X220184426Y-93239922D02*
X220209248Y-93216313D01*
X218466873Y-91247312D02*
X218491019Y-91268224D01*
X218685495Y-90129835D02*
X218655278Y-90141747D01*
X222160553Y-85961574D02*
X221946368Y-85947338D01*
X220209248Y-92275296D02*
X220209248Y-92275296D01*
X221085281Y-93404490D02*
X221077850Y-93436690D01*
X220527134Y-95415520D02*
X220759945Y-95469257D01*
X222387357Y-87837381D02*
X222381507Y-87804605D01*
X224629657Y-86914312D02*
X224465766Y-86795662D01*
X222580750Y-86017577D02*
X222372081Y-85985055D01*
X219202450Y-88370401D02*
X219183418Y-88397698D01*
X221237210Y-87491321D02*
X221216295Y-87515464D01*
X218880033Y-91419229D02*
X218914271Y-91420083D01*
X225866130Y-90072725D02*
X225896834Y-90042173D01*
X221072003Y-88040087D02*
X221077857Y-88072856D01*
X220254947Y-93165780D02*
X220275512Y-93139242D01*
X221237733Y-95542183D02*
X221482106Y-95560768D01*
X222342750Y-88197741D02*
X222354661Y-88167524D01*
X221085281Y-87772432D02*
X221077850Y-87804628D01*
X221729649Y-94236282D02*
X221729649Y-94236282D01*
X219080609Y-91399193D02*
X219112191Y-91390237D01*
X220019343Y-88160224D02*
X219989551Y-88147276D01*
X219429724Y-88174625D02*
X219401059Y-88190609D01*
X221259243Y-93100247D02*
X221237210Y-93123356D01*
X220527134Y-86094066D02*
X220298782Y-86158914D01*
X221729728Y-85942547D02*
X221482106Y-85948814D01*
X220275512Y-92352400D02*
X220254947Y-92325853D01*
X218252280Y-90822816D02*
X218256512Y-90856114D01*
X219231506Y-91339878D02*
X219259374Y-91323864D01*
X222580750Y-95492000D02*
X222786357Y-95450638D01*
X219245081Y-88318177D02*
X219223004Y-88343874D01*
X221441260Y-92970980D02*
X221412573Y-92985673D01*
X225757395Y-90207607D02*
X225782371Y-90172080D01*
X225712109Y-91227525D02*
X225691937Y-91188751D01*
X221259253Y-88409277D02*
X221282361Y-88431310D01*
X220355486Y-92996216D02*
X220366911Y-92965955D01*
X218421728Y-90307428D02*
X218400812Y-90331569D01*
X218016441Y-93815757D02*
X218167695Y-93990371D01*
X225712146Y-90281989D02*
X225733971Y-90244259D01*
X222298702Y-87593649D02*
X222281396Y-87566652D01*
X222200181Y-88409258D02*
X222222210Y-88386147D01*
X219165988Y-89101914D02*
X219183506Y-89129927D01*
X226396157Y-89575308D02*
X226341022Y-89375022D01*
X221763892Y-87274213D02*
X221729649Y-87273348D01*
X221282352Y-93078215D02*
X221259243Y-93100247D01*
X220996912Y-95511579D02*
X221237733Y-95542183D01*
X226226366Y-91675458D02*
X226185574Y-91658862D01*
X222342750Y-93829836D02*
X222354661Y-93799617D01*
X219578859Y-90720497D02*
X219576289Y-90686731D01*
X221470733Y-88551884D02*
X221500943Y-88563798D01*
X219245201Y-89209466D02*
X219268813Y-89234281D01*
X218362502Y-91126805D02*
X218381056Y-91152893D01*
X226896252Y-74053139D02*
X227103749Y-73946862D01*
X221648889Y-69146514D02*
X221621892Y-69163820D01*
X221424904Y-70060504D02*
X221442210Y-70087499D01*
X221734956Y-70328586D02*
X221765174Y-70340503D01*
X227943245Y-69130478D02*
X227914552Y-69115787D01*
X223008497Y-72343973D02*
X223039176Y-72334070D01*
X221523454Y-70185973D02*
X221546561Y-70208006D01*
X220363987Y-67871074D02*
X220289286Y-68062419D01*
X226330668Y-72176853D02*
X226330668Y-72176853D01*
X227356850Y-71340343D02*
X227337811Y-71313037D01*
X220072817Y-68864466D02*
X220040295Y-69073135D01*
X221859845Y-69063709D02*
X221827646Y-69071139D01*
X222348742Y-71235545D02*
X222348742Y-71235545D01*
X227051456Y-71089730D02*
X227021195Y-71078305D01*
X224296694Y-72107617D02*
X224276938Y-72132754D01*
X225460216Y-65608499D02*
X225427073Y-65636428D01*
X225522649Y-65548465D02*
X225492090Y-65579162D01*
X227760169Y-70367359D02*
X227792362Y-70359926D01*
X227823939Y-70350956D02*
X227854857Y-70340492D01*
X227271685Y-72176986D02*
X227295282Y-72152164D01*
X225282765Y-65733107D02*
X225243991Y-65753279D01*
X222509606Y-72295293D02*
X222538860Y-72309757D01*
X222229934Y-71396613D02*
X222215464Y-71425873D01*
X224911332Y-71873157D02*
X224878017Y-71868927D01*
X227271553Y-71235968D02*
X227246729Y-71212357D01*
X227081371Y-72310193D02*
X227110629Y-72295731D01*
X223944356Y-65338264D02*
X223924332Y-65299375D01*
X222659416Y-69715567D02*
X222659416Y-69715567D01*
X223069440Y-72322644D02*
X223099231Y-72309695D01*
X227074239Y-70087499D02*
X227092790Y-70113585D01*
X223472419Y-71833039D02*
X223477755Y-71801478D01*
X226769177Y-71041746D02*
X226737319Y-71044031D01*
X227454365Y-71833570D02*
X227459691Y-71802004D01*
X220969552Y-66815559D02*
X220850902Y-66979450D01*
X227694100Y-70377448D02*
X227727401Y-70373213D01*
X225445477Y-72333025D02*
X225435026Y-72302103D01*
X225361803Y-72158843D02*
X225343257Y-72132754D01*
X221096681Y-72776437D02*
X221247929Y-72951049D01*
X228225894Y-69427052D02*
X228211197Y-69398361D01*
X225069052Y-71917773D02*
X225038828Y-71905861D01*
X223481580Y-71642193D02*
X223477774Y-71610453D01*
X220004054Y-69963110D02*
X220022641Y-70207483D01*
X229397442Y-68257634D02*
X229330773Y-68062421D01*
X225301967Y-74502856D02*
X225542798Y-74472251D01*
X224456413Y-65788470D02*
X224415733Y-65771730D01*
X228211197Y-70032638D02*
X228225894Y-70003952D01*
X227524705Y-70373219D02*
X227558014Y-70377452D01*
X224911354Y-73188704D02*
X224944120Y-73182851D01*
X221621892Y-69163820D02*
X221595806Y-69182370D01*
X227367005Y-69102477D02*
X227337526Y-69115801D01*
X225675737Y-65338387D02*
X225654062Y-65376244D01*
X224809870Y-65853920D02*
X224809870Y-65853920D01*
X225492090Y-65579162D02*
X225460216Y-65608499D01*
X221570671Y-69202122D02*
X221546530Y-69223034D01*
X225461846Y-72665037D02*
X225467689Y-72632271D01*
X226284891Y-71286476D02*
X226264349Y-71313003D01*
X221595806Y-69182370D02*
X221570671Y-69202122D01*
X228525248Y-66656971D02*
X228255673Y-66356417D01*
X224708699Y-73188704D02*
X224741998Y-73192936D01*
X228239221Y-69456527D02*
X228225894Y-69427052D01*
X223422880Y-71986107D02*
X223435836Y-71956322D01*
X222453133Y-71150246D02*
X222425823Y-71169285D01*
X222509822Y-71116739D02*
X222481152Y-71132731D01*
X226463068Y-72279667D02*
X226491736Y-72295661D01*
X222310944Y-65602488D02*
X222140010Y-65711566D01*
X224174616Y-72728804D02*
X224185075Y-72759721D01*
X225127228Y-71945790D02*
X225098533Y-71931097D01*
X226833011Y-71041746D02*
X226801094Y-71040984D01*
X223355918Y-71312517D02*
X223335353Y-71285970D01*
X227885076Y-70328575D02*
X227914552Y-70315247D01*
X226990639Y-72344444D02*
X227021317Y-72334550D01*
X223840140Y-74429929D02*
X224077111Y-74472251D01*
X225758479Y-65134664D02*
X225745506Y-65177174D01*
X224210310Y-72819413D02*
X224225001Y-72848104D01*
X224521644Y-71931097D02*
X224492962Y-71945790D01*
X221480486Y-69292315D02*
X221460736Y-69317450D01*
X227459673Y-71610950D02*
X227454340Y-71579384D01*
X224196987Y-72789938D02*
X224210310Y-72819413D01*
X226154774Y-71864773D02*
X226163148Y-71895805D01*
X222325133Y-71260369D02*
X222303047Y-71286080D01*
X225435009Y-72759721D02*
X225445464Y-72728804D01*
X222545772Y-70087492D02*
X222563080Y-70060498D01*
X222563080Y-70060498D02*
X222579103Y-70032638D01*
X223422942Y-71425791D02*
X223408471Y-71396528D01*
X222392102Y-69182347D02*
X222366013Y-69163799D01*
X224976316Y-71886436D02*
X224944112Y-71879008D01*
X225204231Y-65771756D02*
X225163533Y-65788491D01*
X224878056Y-73192936D02*
X224911354Y-73188704D01*
X226147926Y-71579284D02*
X226142598Y-71610845D01*
X221342101Y-69581462D02*
X221336251Y-69614230D01*
X225395118Y-72213710D02*
X225379104Y-72185842D01*
X224809870Y-65853920D02*
X224763406Y-65852842D01*
X222303047Y-71286080D02*
X222282484Y-71312620D01*
X224810029Y-73196372D02*
X224810029Y-73196372D01*
X227110629Y-72295731D02*
X227139296Y-72279746D01*
X222658550Y-69749793D02*
X222659416Y-69715567D01*
X222263356Y-72072171D02*
X222282386Y-72099475D01*
X222028232Y-70380020D02*
X222062025Y-70377448D01*
X220739072Y-67148422D02*
X220634263Y-67322272D01*
X229470760Y-70918082D02*
X229524497Y-70685271D01*
X222691943Y-72359234D02*
X222723508Y-72364561D01*
X222165956Y-71578971D02*
X222160623Y-71610536D01*
X224337229Y-65733070D02*
X224299499Y-65711245D01*
X228769162Y-66979463D02*
X228525248Y-66656971D01*
X222062016Y-69053627D02*
X222028227Y-69051058D01*
X220850902Y-66979450D02*
X220739072Y-67148422D01*
X222481152Y-71132731D02*
X222453133Y-71150246D01*
X222441387Y-69223006D02*
X222417241Y-69202096D01*
X224540392Y-65816531D02*
X224497982Y-65803420D01*
X227558014Y-70377452D02*
X227591816Y-70380022D01*
X220222616Y-68257632D02*
X220164180Y-68456513D01*
X228096600Y-69245035D02*
X228073488Y-69223006D01*
X226928168Y-71053170D02*
X226896607Y-71047839D01*
X223435836Y-71956322D02*
X223447268Y-71926063D01*
X227428148Y-70350966D02*
X227459730Y-70359935D01*
X223924332Y-65299375D02*
X223906000Y-65259508D01*
X225778733Y-65047327D02*
X225769571Y-65091365D01*
X226163148Y-71895805D02*
X226173045Y-71926483D01*
X223457175Y-71895390D02*
X223465559Y-71864362D01*
X226801187Y-72371835D02*
X226833107Y-72371076D01*
X222425641Y-72242766D02*
X222452938Y-72261798D01*
X227139296Y-72279746D02*
X227167312Y-72262239D01*
X224581256Y-73155989D02*
X224612170Y-73166452D01*
X222441407Y-70207995D02*
X222464517Y-70185963D01*
X223040653Y-65239199D02*
X222851734Y-65318664D01*
X226173045Y-71926483D02*
X226184465Y-71956747D01*
X227694100Y-69053627D02*
X227660309Y-69051058D01*
X223408471Y-71396528D02*
X223392477Y-71367855D01*
X223157317Y-71132695D02*
X223128659Y-71116714D01*
X228523342Y-72776437D02*
X228666207Y-72594644D01*
X223239003Y-72222103D02*
X223264706Y-72200015D01*
X224165651Y-72697229D02*
X224174616Y-72728804D01*
X221827646Y-69071139D02*
X221796064Y-69080104D01*
X225182096Y-71979116D02*
X225155096Y-71961810D01*
X224944120Y-73182851D02*
X224976311Y-73175420D01*
X226990524Y-69517694D02*
X226981559Y-69549270D01*
X220536678Y-67500799D02*
X220446519Y-67683800D01*
X226801094Y-71040984D02*
X226769177Y-71041746D01*
X222119448Y-73705810D02*
X222314691Y-73830985D01*
X221859868Y-70367366D02*
X221892639Y-70373219D01*
X221394192Y-70003956D02*
X221408884Y-70032643D01*
X222946132Y-72359209D02*
X222977463Y-72352352D01*
X227167177Y-71150663D02*
X227139163Y-71133145D01*
X222253003Y-70328575D02*
X222282479Y-70315247D01*
X222154525Y-71674140D02*
X222153761Y-71706060D01*
X226491736Y-72295661D02*
X226520996Y-72310131D01*
X225233269Y-73044404D02*
X225257412Y-73023488D01*
X220375976Y-71588552D02*
X220472346Y-71801713D01*
X226381203Y-72222548D02*
X226407742Y-72243111D01*
X227465776Y-71738398D02*
X227466534Y-71706477D01*
X228251138Y-69486745D02*
X228239221Y-69456527D01*
X221959741Y-70380022D02*
X221993989Y-70380888D01*
X224014117Y-65448585D02*
X223989296Y-65412917D01*
X227317357Y-72126455D02*
X227337909Y-72099918D01*
X222638467Y-69881798D02*
X222645897Y-69849615D01*
X223408401Y-72015361D02*
X223422880Y-71986107D01*
X227000984Y-69486777D02*
X226990524Y-69517694D01*
X226520914Y-71102678D02*
X226491651Y-71117150D01*
X221705446Y-69115801D02*
X221676754Y-69130494D01*
X222486678Y-65500511D02*
X222310944Y-65602488D01*
X227558014Y-69053628D02*
X227524705Y-69057859D01*
X224438112Y-71979116D02*
X224412028Y-71997667D01*
X229505878Y-68658859D02*
X229455878Y-68456514D01*
X227626068Y-70380888D02*
X227626068Y-70380888D01*
X224258384Y-72158843D02*
X224241073Y-72185842D01*
X223355819Y-72099340D02*
X223374870Y-72072037D01*
X228270569Y-69549243D02*
X228261601Y-69517664D01*
X229622270Y-69715488D02*
X229617479Y-69498848D01*
X219997787Y-69715488D02*
X219997787Y-69715488D01*
X222755489Y-71043647D02*
X222723747Y-71047453D01*
X226136508Y-71674443D02*
X226135746Y-71706361D01*
X221974077Y-65827542D02*
X221813347Y-65950214D01*
X222095327Y-70373213D02*
X222128096Y-70367359D01*
X222165930Y-71833148D02*
X222172780Y-71864475D01*
X223447268Y-71926063D02*
X223457175Y-71895390D01*
X226197408Y-71986537D02*
X226211874Y-72015796D01*
X222160272Y-69071134D02*
X222128081Y-69063706D01*
X222819268Y-71040604D02*
X222787349Y-71041364D01*
X220022641Y-70207483D02*
X220053247Y-70448304D01*
X228239221Y-69974483D02*
X228251138Y-69944273D01*
X225098533Y-71931097D02*
X225069052Y-71917773D01*
X222527204Y-69317416D02*
X222507448Y-69292282D01*
X221336251Y-69614230D02*
X221332022Y-69647531D01*
X225467689Y-72632271D02*
X225471910Y-72598973D01*
X222202516Y-71455665D02*
X222191092Y-71485929D01*
X223472445Y-71578890D02*
X223465591Y-71547562D01*
X226550708Y-71089730D02*
X226520914Y-71102678D01*
X222850958Y-72370640D02*
X222882821Y-72368353D01*
X225989582Y-65049204D02*
X225785918Y-65002597D01*
X227056933Y-70060504D02*
X227074239Y-70087499D01*
X228024202Y-69182347D02*
X227998112Y-69163799D01*
X223966027Y-65376127D02*
X223944356Y-65338264D01*
X224581313Y-71905861D02*
X224551108Y-71917773D01*
X227454340Y-71579384D02*
X227447484Y-71548054D01*
X222373417Y-72200135D02*
X222399114Y-72222212D01*
X224262847Y-65687821D02*
X224227320Y-65662845D01*
X222156813Y-71642279D02*
X222154525Y-71674140D01*
X228177862Y-70087492D02*
X228195172Y-70060498D01*
X226674095Y-72359640D02*
X226705661Y-72364973D01*
X223128659Y-71116714D02*
X223099408Y-71102255D01*
X226330536Y-71235968D02*
X226306953Y-71260778D01*
X222692182Y-71052782D02*
X222660853Y-71059634D01*
X222399114Y-72222212D02*
X222425641Y-72242766D01*
X226355492Y-72200462D02*
X226381203Y-72222548D01*
X221329454Y-69749793D02*
X221332023Y-69783572D01*
X227854857Y-70340492D02*
X227885076Y-70328575D01*
X226953091Y-65405921D02*
X226768371Y-65318760D01*
X227428148Y-69080104D02*
X227397226Y-69090564D01*
X225423121Y-72271882D02*
X225409804Y-72242403D01*
X222651749Y-69816859D02*
X222655981Y-69783571D01*
X226581053Y-72334504D02*
X226611732Y-72344405D01*
X224878017Y-71868927D02*
X224844208Y-71866357D01*
X224412028Y-71997667D02*
X224386893Y-72017419D01*
X220289812Y-71370025D02*
X220375976Y-71588552D01*
X227178596Y-70208006D02*
X227202740Y-70228921D01*
X222539082Y-71102271D02*
X222509822Y-71116739D01*
X222191092Y-71485929D02*
X222181190Y-71516608D01*
X221424886Y-69370533D02*
X221408869Y-69398397D01*
X221796093Y-70350966D02*
X221827672Y-70359935D01*
X223335353Y-71285970D02*
X223313265Y-71260249D01*
X228049342Y-69202096D02*
X228024202Y-69182347D01*
X228800379Y-72405973D02*
X228925554Y-72210726D01*
X222172780Y-71864475D02*
X222181151Y-71895507D01*
X223128488Y-72295223D02*
X223157154Y-72279228D01*
X224809949Y-74527703D02*
X224809949Y-74527703D01*
X229173541Y-67683805D02*
X229083382Y-67500805D01*
X220149306Y-70918082D02*
X220214154Y-71146434D01*
X220114179Y-68658858D02*
X220072817Y-68864466D01*
X225605962Y-65448689D02*
X225579633Y-65483181D01*
X221993989Y-70380888D02*
X221993989Y-70380888D01*
X224386809Y-73044404D02*
X224411942Y-73064160D01*
X223989296Y-65412917D02*
X223966027Y-65376127D01*
X228096600Y-70185963D02*
X228118635Y-70162855D01*
X222314691Y-73830985D02*
X222516208Y-73946862D01*
X227337811Y-71313037D02*
X227317248Y-71286499D01*
X225257412Y-73023488D02*
X225280520Y-73001454D01*
X224844267Y-73195506D02*
X224878056Y-73192936D01*
X223335244Y-72125875D02*
X223355819Y-72099340D01*
X222607124Y-69974483D02*
X222619038Y-69944273D01*
X225475323Y-72530945D02*
X225474470Y-72496693D01*
X227390361Y-71397027D02*
X227374367Y-71368359D01*
X228288086Y-69783571D02*
X228290656Y-69749793D01*
X222392125Y-70248664D02*
X222417263Y-70228910D01*
X224375989Y-65753247D02*
X224337229Y-65733070D01*
X221765174Y-70340503D02*
X221796093Y-70350966D01*
X227962054Y-66079420D02*
X227646006Y-65827594D01*
X223392398Y-72044024D02*
X223408401Y-72015361D01*
X227998112Y-69163799D02*
X227971112Y-69146496D01*
X221442189Y-69343537D02*
X221424886Y-69370533D01*
X225423100Y-72789938D02*
X225435009Y-72759721D01*
X221925931Y-69053628D02*
X221892621Y-69057859D01*
X228278000Y-69581439D02*
X228270569Y-69549243D01*
X222659416Y-69715567D02*
X222658550Y-69681317D01*
X223834219Y-65002438D02*
X223834219Y-65002438D01*
X226769266Y-72371070D02*
X226801187Y-72371835D01*
X229256071Y-67871078D02*
X229173541Y-67683805D01*
X223483857Y-71737884D02*
X223484621Y-71705968D01*
X223155382Y-74235681D02*
X223378973Y-74311341D01*
X221332023Y-69783572D02*
X221336253Y-69816860D01*
X227202740Y-70228921D02*
X227227877Y-70248676D01*
X222914565Y-72364542D02*
X222946132Y-72359209D01*
X222936856Y-74149513D02*
X223155382Y-74235681D01*
X226737405Y-72368783D02*
X226769266Y-72371070D01*
X224612216Y-71895401D02*
X224581313Y-71905861D01*
X225630788Y-65413027D02*
X225605962Y-65448689D01*
X222723747Y-71047453D02*
X222692182Y-71052782D01*
X224185101Y-72302103D02*
X224174636Y-72333025D01*
X224944112Y-71879008D02*
X224911332Y-71873157D01*
X228251138Y-69944273D02*
X228261601Y-69913364D01*
X222191046Y-71926184D02*
X222202463Y-71956446D01*
X226974131Y-69581462D02*
X226968280Y-69614230D01*
X227792362Y-70359926D02*
X227823939Y-70350956D01*
X227012896Y-69456561D02*
X227000984Y-69486777D01*
X222629500Y-69913364D02*
X222638467Y-69881798D01*
X226136507Y-71738280D02*
X226138790Y-71770139D01*
X224562318Y-74521440D02*
X224809949Y-74527703D01*
X222156800Y-71769841D02*
X222160604Y-71801583D01*
X224902306Y-65849640D02*
X224856368Y-65852842D01*
X222311171Y-70300550D02*
X222339037Y-70284526D01*
X225379070Y-72875970D02*
X225395089Y-72848104D01*
X226245377Y-72072479D02*
X226264414Y-72099785D01*
X221501423Y-70162864D02*
X221523454Y-70185973D01*
X228073488Y-69223006D02*
X228049342Y-69202096D01*
X223481568Y-71769740D02*
X223483857Y-71737884D01*
X227103749Y-73946862D02*
X227305275Y-73830985D01*
X227021317Y-72334550D02*
X227051580Y-72323133D01*
X226435050Y-72262151D02*
X226463068Y-72279667D01*
X221993989Y-69050193D02*
X221993989Y-69050193D01*
X227660309Y-70380020D02*
X227694100Y-70377448D01*
X223157154Y-72279228D02*
X223185167Y-72261710D01*
X226386553Y-65167760D02*
X226189861Y-65104326D01*
X227491930Y-70367366D02*
X227524705Y-70373219D01*
X223906000Y-65259508D02*
X223889409Y-65218710D01*
X226245328Y-71340299D02*
X226227828Y-71368307D01*
X224976311Y-73175420D02*
X225007886Y-73166452D01*
X223313265Y-71260249D02*
X223289654Y-71235413D01*
X221358490Y-69517694D02*
X221349527Y-69549270D01*
X227374367Y-71368359D02*
X227356850Y-71340343D01*
X223477774Y-71610453D02*
X223472445Y-71578890D01*
X222172811Y-71547642D02*
X222165956Y-71578971D01*
X225435026Y-72302103D02*
X225423121Y-72271882D01*
X226264414Y-72099785D02*
X226284975Y-72126323D01*
X227246864Y-72200583D02*
X227271685Y-72176986D01*
X222538860Y-72309757D02*
X222568646Y-72322698D01*
X225714102Y-65259642D02*
X225695766Y-65299504D01*
X226550788Y-72323079D02*
X226581053Y-72334504D01*
X227463483Y-71642694D02*
X227459673Y-71610950D01*
X224551108Y-71917773D02*
X224521644Y-71931097D01*
X222645897Y-69849615D02*
X222651749Y-69816859D01*
X222215402Y-71986235D02*
X222229865Y-72015492D01*
X222222785Y-70340492D02*
X222253003Y-70328575D01*
X227374446Y-72044595D02*
X227390431Y-72015927D01*
X228925554Y-72210726D02*
X229041432Y-72009205D01*
X222723697Y-74053139D02*
X222936856Y-74149513D01*
X222755252Y-72368365D02*
X222787114Y-72370647D01*
X222658550Y-69681317D02*
X222655980Y-69647518D01*
X226184456Y-71456000D02*
X226173041Y-71486258D01*
X222629583Y-72344012D02*
X222660615Y-72352384D01*
X225785918Y-65002597D02*
X225778733Y-65047327D01*
X226462979Y-71133145D02*
X226434955Y-71150663D01*
X227026220Y-70003956D02*
X227040913Y-70032643D01*
X226381093Y-71190269D02*
X226355372Y-71212357D01*
X227646006Y-65827594D02*
X227309146Y-65602556D01*
X222563068Y-69370498D02*
X222545758Y-69343502D01*
X224362751Y-72038332D02*
X224339642Y-72060364D01*
X223185167Y-72261710D02*
X223212470Y-72242668D01*
X222568646Y-72322698D02*
X222598907Y-72334116D01*
X229622270Y-69715488D02*
X229622270Y-69715488D01*
X225474470Y-72496693D02*
X225471912Y-72462891D01*
X224643743Y-73175420D02*
X224675934Y-73182851D01*
X221358497Y-69913367D02*
X221368957Y-69944276D01*
X222599141Y-71077906D02*
X222568875Y-71089327D01*
X227202740Y-69202122D02*
X227178596Y-69223034D01*
X225409779Y-72819413D02*
X225423100Y-72789938D01*
X227459730Y-70359935D02*
X227491930Y-70367366D01*
X224158223Y-72665037D02*
X224165651Y-72697229D01*
X221676754Y-69130494D02*
X221648889Y-69146514D01*
X227139163Y-71133145D02*
X227110498Y-71117150D01*
X222282386Y-72099475D02*
X222302938Y-72126010D01*
X224362668Y-73023488D02*
X224386809Y-73044404D01*
X221508306Y-66214840D02*
X221364398Y-66356389D01*
X227110498Y-71117150D02*
X227081243Y-71102678D01*
X222851185Y-71041365D02*
X222819268Y-71040604D01*
X229041432Y-72009205D02*
X229147708Y-71801713D01*
X224068222Y-65516365D02*
X224040441Y-65483084D01*
X227971112Y-69146496D02*
X227943245Y-69130478D01*
X222028227Y-69051058D02*
X221993989Y-69050193D01*
X227227877Y-70248676D02*
X227253966Y-70267229D01*
X225121946Y-65803436D02*
X225079515Y-65816544D01*
X228666207Y-72594644D02*
X228800379Y-72405973D01*
X227404831Y-71426286D02*
X227390361Y-71397027D01*
X227491930Y-69063709D02*
X227459730Y-69071139D01*
X227591816Y-69051058D02*
X227558014Y-69053628D01*
X224675934Y-73182851D02*
X224708699Y-73188704D01*
X222160290Y-70359926D02*
X222191867Y-70350956D01*
X224775737Y-71866357D02*
X224741971Y-71868927D01*
X221574388Y-73277521D02*
X221748994Y-73428775D01*
X222579103Y-70032638D02*
X222593798Y-70003952D01*
X228270569Y-69881798D02*
X228278000Y-69849615D01*
X224317534Y-72978343D02*
X224339563Y-73001454D01*
X229603243Y-69284663D02*
X229579763Y-69073135D01*
X228283853Y-69816859D02*
X228288086Y-69783571D01*
X224165666Y-72364607D02*
X224158233Y-72396807D01*
X222425823Y-71169285D02*
X222399282Y-71189848D01*
X227417832Y-71956877D02*
X227429250Y-71926612D01*
X227271553Y-71235968D02*
X227271553Y-71235968D01*
X227026220Y-69427087D02*
X227012896Y-69456561D01*
X225280520Y-73001454D02*
X225302552Y-72978343D01*
X223289654Y-71235413D02*
X223289654Y-71235413D01*
X229083382Y-67500805D02*
X228985798Y-67322280D01*
X227971112Y-70284526D02*
X227998112Y-70267217D01*
X229330773Y-68062421D02*
X229256071Y-67871078D01*
X227295282Y-72152164D02*
X227317357Y-72126455D01*
X227466534Y-71706477D02*
X227465770Y-71674556D01*
X224465104Y-71961810D02*
X224438112Y-71979116D01*
X222062025Y-70377448D02*
X222095327Y-70373213D01*
X223185324Y-71150196D02*
X223157317Y-71132695D01*
X227760169Y-69063706D02*
X227727401Y-69057857D01*
X227167312Y-72262239D02*
X227194618Y-72243210D01*
X220289286Y-68062419D02*
X220222616Y-68257632D01*
X227439144Y-71895934D02*
X227447516Y-71864900D01*
X225454423Y-72697229D02*
X225461846Y-72665037D01*
X226960615Y-69715567D02*
X226961480Y-69749793D01*
X228195172Y-69370498D02*
X228177862Y-69343502D01*
X225257463Y-72038332D02*
X225233321Y-72017419D01*
X222977463Y-72352352D02*
X223008497Y-72343973D01*
X223465591Y-71547562D02*
X223457214Y-71516529D01*
X226173041Y-71486258D02*
X226163148Y-71516931D01*
X227133417Y-65500587D02*
X226953091Y-65405921D01*
X224241020Y-72875970D02*
X224258325Y-72902969D01*
X221349527Y-69549270D02*
X221342101Y-69581462D01*
X222140010Y-65711566D02*
X221974077Y-65827542D01*
X224144707Y-72530945D02*
X224144707Y-72530945D01*
X226864868Y-71044031D02*
X226833011Y-71041746D01*
X221734923Y-69102477D02*
X221705446Y-69115801D01*
X227356939Y-72072611D02*
X227374446Y-72044595D01*
X222486550Y-70162855D02*
X222507465Y-70138712D01*
X221892639Y-70373219D02*
X221925944Y-70377452D01*
X222645895Y-69581439D02*
X222638463Y-69549243D01*
X227885076Y-69102466D02*
X227854857Y-69090555D01*
X228118635Y-69268141D02*
X228096600Y-69245035D01*
X223039368Y-71077902D02*
X223008696Y-71068008D01*
X220694489Y-72210726D02*
X220819658Y-72405973D01*
X224144707Y-72530945D02*
X224145573Y-72565183D01*
X228211197Y-69398361D02*
X228195172Y-69370498D01*
X222339037Y-70284526D02*
X222366036Y-70267217D01*
X224225047Y-72213710D02*
X224210348Y-72242403D01*
X224174636Y-72333025D02*
X224165666Y-72364607D01*
X225302599Y-72083473D02*
X225280570Y-72060364D01*
D13*
X225080282Y-64470263D02*
X225346989Y-64490544D01*
X225609819Y-64523944D01*
X225868442Y-64570131D01*
X226122529Y-64628776D01*
X226371750Y-64699549D01*
X226615773Y-64782120D01*
X226854270Y-64876159D01*
X227086910Y-64981335D01*
X227313363Y-65097320D01*
X227533299Y-65223782D01*
X227746387Y-65360392D01*
X227952299Y-65506821D01*
X228150703Y-65662737D01*
X228341271Y-65827811D01*
X228523670Y-66001713D01*
X228697573Y-66184113D01*
X228862648Y-66374682D01*
X229018565Y-66573088D01*
X229164995Y-66779002D01*
X229301608Y-66992095D01*
X229428072Y-67212035D01*
X229544059Y-67438494D01*
X229649238Y-67671140D01*
X229743279Y-67909645D01*
X229825852Y-68153678D01*
X229896628Y-68402909D01*
X229955275Y-68657008D01*
X230001464Y-68915646D01*
X230034864Y-69178492D01*
X230055147Y-69445216D01*
X230061981Y-69715488D01*
X230055147Y-69985744D01*
X230034864Y-70252453D01*
X230001464Y-70515287D01*
X229955275Y-70773914D01*
X229896628Y-71028004D01*
X229825852Y-71277228D01*
X229743279Y-71521256D01*
X229649238Y-71759757D01*
X229544059Y-71992401D01*
X229428072Y-72218858D01*
X229301608Y-72438798D01*
X229164995Y-72651892D01*
X229018565Y-72857808D01*
X228862648Y-73056217D01*
X228697573Y-73246788D01*
X228523670Y-73429192D01*
X228341271Y-73603099D01*
X228150703Y-73768178D01*
X227952299Y-73924100D01*
X227746387Y-74070534D01*
X227533299Y-74207150D01*
X227313363Y-74333618D01*
X227086910Y-74449608D01*
X226854270Y-74554790D01*
X226615773Y-74648834D01*
X226371750Y-74731410D01*
X226122529Y-74802187D01*
X225868442Y-74860836D01*
X225609819Y-74907027D01*
X225346989Y-74940428D01*
X225080282Y-74960712D01*
X224810029Y-74967546D01*
X224539764Y-74960712D01*
X224273047Y-74940428D01*
X224010207Y-74907027D01*
X223751576Y-74860836D01*
X223497482Y-74802187D01*
X223248256Y-74731410D01*
X223004228Y-74648834D01*
X222765727Y-74554790D01*
X222533084Y-74449608D01*
X222306630Y-74333618D01*
X222086692Y-74207150D01*
X221873603Y-74070534D01*
X221667692Y-73924100D01*
X221469288Y-73768178D01*
X221278722Y-73603099D01*
X221096324Y-73429192D01*
X220922423Y-73246788D01*
X220757351Y-73056217D01*
X220601436Y-72857808D01*
X220455009Y-72651892D01*
X220318399Y-72438798D01*
X220191938Y-72218858D01*
X220075954Y-71992401D01*
X219970778Y-71759757D01*
X219876740Y-71521256D01*
X219794169Y-71277228D01*
X219723397Y-71028004D01*
X219664752Y-70773914D01*
X219618565Y-70515287D01*
X219585165Y-70252453D01*
X219564884Y-69985744D01*
X219558050Y-69715488D01*
X219564884Y-69445216D01*
X219585166Y-69178492D01*
X219618566Y-68915646D01*
X219664754Y-68657008D01*
X219723400Y-68402909D01*
X219794174Y-68153678D01*
X219876746Y-67909645D01*
X219970786Y-67671140D01*
X220075963Y-67438494D01*
X220191949Y-67212035D01*
X220318412Y-66992095D01*
X220455023Y-66779002D01*
X220601452Y-66573088D01*
X220757368Y-66374682D01*
X220922442Y-66184113D01*
X221096344Y-66001713D01*
X221278743Y-65827811D01*
X221469310Y-65662737D01*
X221667715Y-65506821D01*
X221873627Y-65360392D01*
X222086716Y-65223782D01*
X222306653Y-65097320D01*
X222533108Y-64981335D01*
X222765750Y-64876159D01*
X223004249Y-64782120D01*
X223248276Y-64699549D01*
X223497500Y-64628776D01*
X223751591Y-64570131D01*
X224010220Y-64523944D01*
X224273055Y-64490544D01*
X224539768Y-64470263D01*
X224810029Y-64463429D01*
X225080282Y-64470263D01*
D12*
X224497982Y-65803420D02*
X224456413Y-65788470D01*
X224947636Y-65844361D02*
X224902306Y-65849640D01*
X224148142Y-72598973D02*
X224152373Y-72632271D01*
X229405910Y-71146434D02*
X229470760Y-70918082D01*
X222629495Y-69517664D02*
X222619032Y-69486745D01*
X227253966Y-69163820D02*
X227227877Y-69182370D01*
X222282479Y-70315247D02*
X222311171Y-70300550D01*
X225730698Y-65218850D02*
X225714102Y-65259642D01*
X222181151Y-71895507D02*
X222191046Y-71926184D01*
X222452938Y-72261798D02*
X222480946Y-72279307D01*
X222399282Y-71189848D02*
X222373568Y-71211934D01*
X226611653Y-71068404D02*
X226580974Y-71078305D01*
X228159308Y-70113577D02*
X228177862Y-70087492D01*
X222507465Y-70138712D02*
X222527219Y-70113577D01*
X221328588Y-69715567D02*
X221328588Y-69715567D01*
X224844208Y-71866357D02*
X224809949Y-71865492D01*
X228880991Y-67148432D02*
X228769162Y-66979463D01*
X228291522Y-69715567D02*
X228291522Y-69715567D01*
X227397226Y-70340503D02*
X227428148Y-70350966D01*
X222977668Y-71059635D02*
X222946344Y-71052785D01*
X227194482Y-71169704D02*
X227167177Y-71150663D01*
X228985798Y-67322280D02*
X228880991Y-67148432D01*
X226928277Y-72359665D02*
X226959606Y-72352816D01*
X226307060Y-72152032D02*
X226330668Y-72176853D01*
X224675949Y-71879008D02*
X224643775Y-71886436D01*
X226674014Y-71053170D02*
X226642686Y-71060025D01*
X225474469Y-72565183D02*
X225475323Y-72530945D01*
X221765143Y-69090564D02*
X221734923Y-69102477D01*
X224040441Y-65483084D02*
X224014117Y-65448585D01*
X228372086Y-72951049D02*
X228523342Y-72776437D01*
X222787349Y-71041364D02*
X222755489Y-71043647D01*
X221394179Y-69427087D02*
X221380858Y-69456561D01*
X224159832Y-65608430D02*
X224127965Y-65579086D01*
X228283853Y-69614212D02*
X228278000Y-69581439D01*
X221748994Y-73428775D02*
X221930782Y-73571639D01*
X221480511Y-70138721D02*
X221501423Y-70162864D01*
X222095315Y-69057857D02*
X222062016Y-69053627D01*
X222619038Y-69944273D02*
X222629500Y-69913364D01*
X223099231Y-72309695D02*
X223128488Y-72295223D01*
X224809949Y-71865492D02*
X224775737Y-71866357D01*
X228278000Y-69849615D02*
X228283853Y-69816859D01*
X224127965Y-65579086D02*
X224097413Y-65548382D01*
X221993989Y-69050193D02*
X221959734Y-69051058D01*
X227295162Y-71260790D02*
X227271553Y-71235968D01*
X224809949Y-74527703D02*
X224809949Y-74527703D01*
X226142598Y-71610845D02*
X226138792Y-71642585D01*
X228159308Y-69317416D02*
X228139551Y-69292282D01*
X222851734Y-65318664D02*
X222667009Y-65405835D01*
X222191847Y-69080097D02*
X222160272Y-69071134D01*
X222667009Y-65405835D02*
X222486678Y-65500511D01*
X226227828Y-71368307D02*
X226211849Y-71396965D01*
X227459730Y-69071139D02*
X227428148Y-69080104D01*
X226197392Y-71426216D02*
X226184456Y-71456000D01*
X227823939Y-69080097D02*
X227792362Y-69071134D01*
X227155487Y-69245065D02*
X227133455Y-69268172D01*
X221796064Y-69080104D02*
X221765143Y-69090564D01*
X225343216Y-72929059D02*
X225361765Y-72902969D01*
X225007902Y-71895401D02*
X224976316Y-71886436D01*
X221993989Y-70380888D02*
X222028232Y-70380020D01*
X222417241Y-69202096D02*
X222392102Y-69182347D01*
X227280965Y-69146514D02*
X227253966Y-69163820D01*
X226211849Y-71396965D02*
X226197392Y-71426216D01*
X220053247Y-70448304D02*
X220095569Y-70685271D01*
X221925944Y-70377452D02*
X221959741Y-70380022D01*
X225551846Y-65516455D02*
X225522649Y-65548465D01*
X221342104Y-69849616D02*
X221349532Y-69881799D01*
X226580974Y-71078305D02*
X226550708Y-71089730D01*
X224339563Y-73001454D02*
X224362668Y-73023488D01*
X221501396Y-69268172D02*
X221480486Y-69292315D01*
X227092790Y-70113585D02*
X227112542Y-70138721D01*
X224145573Y-72565183D02*
X224148142Y-72598973D01*
X223239146Y-71189763D02*
X223212620Y-71169219D01*
X224225001Y-72848104D02*
X224241020Y-72875970D01*
X220472346Y-71801713D02*
X220578617Y-72009205D01*
X223465559Y-71864362D02*
X223472419Y-71833039D01*
X222191867Y-70350956D02*
X222222785Y-70340492D01*
X227040913Y-70032643D02*
X227056933Y-70060504D01*
X223289654Y-71235413D02*
X223264844Y-71211828D01*
X225323509Y-72107617D02*
X225302599Y-72083473D01*
X221329453Y-69681324D02*
X221328588Y-69715567D01*
X227000984Y-69944276D02*
X227012896Y-69974487D01*
X226968280Y-69614230D02*
X226964049Y-69647531D01*
X222245928Y-71367945D02*
X222229934Y-71396613D01*
X225409804Y-72242403D02*
X225395118Y-72213710D01*
X226135746Y-71706361D02*
X226136507Y-71738280D01*
X224152373Y-72632271D02*
X224158223Y-72665037D01*
X223233563Y-65167642D02*
X223040653Y-65239199D01*
X224097413Y-65548382D02*
X224068222Y-65516365D01*
X226434955Y-71150663D02*
X226407640Y-71169704D01*
X222339014Y-69146496D02*
X222311148Y-69130478D01*
X223289521Y-72176403D02*
X223313144Y-72151582D01*
X225038828Y-71905861D02*
X225007902Y-71895401D01*
X225163533Y-65788491D02*
X225121946Y-65803436D01*
X227227877Y-69182370D02*
X227202740Y-69202122D01*
X222946344Y-71052785D02*
X222914783Y-71047456D01*
X229330250Y-71370025D02*
X229405910Y-71146434D01*
X224643775Y-71886436D02*
X224612216Y-71895401D01*
X222128096Y-70367359D02*
X222160290Y-70359926D01*
X229579763Y-69073135D02*
X229547240Y-68864466D01*
X224708695Y-71873157D02*
X224675949Y-71879008D01*
X221408869Y-69398397D02*
X221394179Y-69427087D01*
X226184465Y-71956747D02*
X226197408Y-71986537D01*
X227727401Y-70373213D02*
X227760169Y-70367359D01*
X226491651Y-71117150D02*
X226462979Y-71133145D01*
X223374959Y-71339832D02*
X223355918Y-71312517D01*
X219997787Y-69715488D02*
X220004054Y-69963110D01*
X221332022Y-69647531D02*
X221329453Y-69681324D01*
X222516208Y-73946862D02*
X222723697Y-74053139D01*
X227660309Y-69051058D02*
X227626068Y-69050193D01*
X227626068Y-70380888D02*
X227660309Y-70380020D01*
X226240954Y-74311341D02*
X226464552Y-74235681D01*
X228024202Y-70248664D02*
X228049342Y-70228910D01*
X225654062Y-65376244D02*
X225630788Y-65413027D01*
X227591816Y-70380022D02*
X227626068Y-70380888D01*
X225467692Y-72429582D02*
X225461852Y-72396807D01*
X228290656Y-69749793D02*
X228291522Y-69715567D01*
X225038802Y-73155989D02*
X225069019Y-73144073D01*
X222348610Y-72176536D02*
X222348610Y-72176536D01*
X227914552Y-70315247D02*
X227943245Y-70300550D01*
X223457214Y-71516529D02*
X223447314Y-71485850D01*
X224185075Y-72759721D02*
X224196987Y-72789938D01*
X221408884Y-70032643D02*
X221424904Y-70060504D01*
X226227864Y-72044463D02*
X226245377Y-72072479D01*
X226642686Y-71060025D02*
X226611653Y-71068404D01*
X225779775Y-74429929D02*
X226012595Y-74376191D01*
X227221155Y-72222657D02*
X227246864Y-72200583D01*
X228212742Y-73118178D02*
X228372086Y-72951049D01*
X226407640Y-71169704D02*
X226381093Y-71190269D01*
X222366036Y-70267217D02*
X222392125Y-70248664D01*
X227626068Y-69050193D02*
X227591816Y-69051058D01*
X221676789Y-70300562D02*
X221705480Y-70315259D01*
X222723508Y-72364561D02*
X222755252Y-72368365D01*
X222282456Y-69115787D02*
X222252981Y-69102466D01*
X222181190Y-71516608D02*
X222172811Y-71547642D01*
X225379104Y-72185842D02*
X225361803Y-72158843D01*
X222655981Y-69783571D02*
X222658550Y-69749793D01*
X223313144Y-72151582D02*
X223335244Y-72125875D01*
X222545758Y-69343502D02*
X222527204Y-69317416D01*
X223850553Y-65091212D02*
X223841397Y-65047171D01*
X222302938Y-72126010D02*
X222325013Y-72151717D01*
X224192966Y-65636365D02*
X224159832Y-65608430D01*
X223874606Y-65177030D02*
X223861638Y-65134514D01*
X226189861Y-65104326D02*
X225989582Y-65049204D01*
X224612170Y-73166452D02*
X224643743Y-73175420D01*
X222348610Y-72176536D02*
X222348610Y-72176536D01*
X225323464Y-72954197D02*
X225343216Y-72929059D01*
X225208133Y-73064160D02*
X225233269Y-73044404D01*
X223392477Y-71367855D02*
X223374959Y-71339832D01*
X225745506Y-65177174D02*
X225730698Y-65218850D01*
X227429203Y-71486342D02*
X227417779Y-71456077D01*
X226990521Y-71068404D02*
X226959492Y-71060025D01*
X222593789Y-69427052D02*
X222579092Y-69398361D01*
X227056933Y-69370533D02*
X227040913Y-69398397D01*
X222651748Y-69614212D02*
X222645895Y-69581439D01*
X228073488Y-70207995D02*
X228096600Y-70185963D01*
X227133455Y-69268172D02*
X227112542Y-69292315D01*
X224386893Y-72017419D02*
X224362751Y-72038332D01*
X222655980Y-69647518D02*
X222651748Y-69614212D01*
X225320508Y-65711288D02*
X225282765Y-65733107D01*
X227463495Y-71770260D02*
X227465776Y-71738398D01*
X225471910Y-72598973D02*
X225474469Y-72565183D01*
X224438027Y-73082714D02*
X224465021Y-73100024D01*
X227194618Y-72243210D02*
X227221155Y-72222657D01*
X224241073Y-72185842D02*
X224225047Y-72213710D01*
X226768371Y-65318760D02*
X226579457Y-65239306D01*
X224077111Y-74472251D02*
X224317938Y-74502856D01*
X226211874Y-72015796D02*
X226227864Y-72044463D01*
X226355372Y-71212357D02*
X226330536Y-71235968D01*
X224492962Y-71945790D02*
X224465104Y-71961810D01*
X222659416Y-69715567D02*
X222659416Y-69715567D01*
X229524497Y-70685271D02*
X229566819Y-70448304D01*
X222883043Y-71043650D02*
X222851185Y-71041365D01*
X224810029Y-73196372D02*
X224844267Y-73195506D01*
X226896607Y-71047839D02*
X226864868Y-71044031D01*
X227246729Y-71212357D02*
X227221020Y-71190269D01*
X228177862Y-69343502D02*
X228159308Y-69317416D01*
X225007886Y-73166452D02*
X225038802Y-73155989D01*
X226520996Y-72310131D02*
X226550788Y-72323079D01*
X227155487Y-70185973D02*
X227178596Y-70208006D01*
X225392709Y-65662901D02*
X225357172Y-65687870D01*
X226330668Y-72176853D02*
X226355492Y-72200462D01*
X221442210Y-70087499D02*
X221460759Y-70113585D01*
X222660853Y-71059634D02*
X222629820Y-71068008D01*
X228255673Y-66356417D02*
X227962054Y-66079420D01*
X227253966Y-70267229D02*
X227280965Y-70284538D01*
X222598907Y-72334116D02*
X222629583Y-72344012D01*
X225769571Y-65091365D02*
X225758479Y-65134664D01*
X222607116Y-69456527D02*
X222593789Y-69427052D01*
X220953823Y-72594644D02*
X221096681Y-72776437D01*
X226959606Y-72352816D02*
X226990639Y-72344444D01*
X226464552Y-74235681D02*
X226683086Y-74149513D01*
X221570704Y-70228921D02*
X221595839Y-70248676D01*
X227465770Y-71674556D02*
X227463483Y-71642694D01*
X223378973Y-74311341D02*
X223607326Y-74376191D01*
X227178596Y-69223034D02*
X227155487Y-69245065D01*
X225343257Y-72132754D02*
X225323509Y-72107617D01*
X227390431Y-72015927D02*
X227404893Y-71986669D01*
X223435890Y-71455584D02*
X223422942Y-71425791D01*
X224775788Y-73195506D02*
X224810029Y-73196372D01*
X224465021Y-73100024D02*
X224492882Y-73116048D01*
X222282484Y-71312620D02*
X222263445Y-71339927D01*
X225785918Y-65002597D02*
X225785918Y-65002597D01*
X225280570Y-72060364D02*
X225257463Y-72038332D01*
X223447314Y-71485850D02*
X223435890Y-71455584D01*
X222366013Y-69163799D02*
X222339014Y-69146496D01*
X228195172Y-70060498D02*
X228211197Y-70032638D01*
X227870997Y-73428775D02*
X228045611Y-73277521D01*
X221336253Y-69816860D02*
X221342104Y-69849616D01*
X223069625Y-71089318D02*
X223039368Y-71077902D01*
X223607326Y-74376191D02*
X223840140Y-74429929D01*
X225695766Y-65299504D02*
X225675737Y-65338387D01*
X223212620Y-71169219D02*
X223185324Y-71150196D01*
X224521570Y-73130745D02*
X224551042Y-73144073D01*
X228261601Y-69913364D02*
X228270569Y-69881798D01*
X227367005Y-70328586D02*
X227397226Y-70340503D01*
X227792362Y-69071134D02*
X227760169Y-69063706D01*
X222619032Y-69486745D02*
X222607116Y-69456527D01*
X222787114Y-72370647D02*
X222819036Y-72371405D01*
X223477755Y-71801478D02*
X223481568Y-71769740D01*
X225579633Y-65483181D02*
X225551846Y-65516455D01*
X222311148Y-69130478D02*
X222282456Y-69115787D01*
X222348742Y-71235545D02*
X222325133Y-71260369D01*
X228288086Y-69647518D02*
X228283853Y-69614212D01*
X225233321Y-72017419D02*
X225208184Y-71997667D01*
X224810029Y-73196372D02*
X224810029Y-73196372D01*
X226330536Y-71235968D02*
X226330536Y-71235968D01*
X227524705Y-69057859D02*
X227491930Y-69063709D01*
X225036288Y-65827765D02*
X224992313Y-65837054D01*
X221380858Y-69456561D02*
X221368948Y-69486777D01*
X220040295Y-69073135D02*
X220016814Y-69284663D01*
X222507448Y-69292282D02*
X222486532Y-69268141D01*
X224992313Y-65837054D02*
X224947636Y-65844361D01*
X222882821Y-72368353D02*
X222914565Y-72364542D01*
X227221020Y-71190269D02*
X227194482Y-71169704D01*
X222660615Y-72352384D02*
X222691943Y-72359234D01*
X223484621Y-71705968D02*
X223483863Y-71674051D01*
X222486532Y-69268141D02*
X222464498Y-69245035D01*
X224741971Y-71868927D02*
X224708695Y-71873157D01*
X224296624Y-72954197D02*
X224317534Y-72978343D01*
X222568875Y-71089327D02*
X222539082Y-71102271D01*
X221546530Y-69223034D02*
X221523424Y-69245065D01*
X220164180Y-68456513D02*
X220114179Y-68658858D01*
X224258325Y-72902969D02*
X224276873Y-72929059D01*
X227943245Y-70300550D02*
X227971112Y-70284526D01*
X227447484Y-71548054D02*
X227439105Y-71517020D01*
X225427073Y-65636428D02*
X225392709Y-65662901D01*
X221648924Y-70284538D02*
X221676789Y-70300562D01*
X227133455Y-70162864D02*
X227155487Y-70185973D01*
X227112542Y-70138721D02*
X227133455Y-70162864D01*
X227429250Y-71926612D02*
X227439144Y-71895934D01*
X225445464Y-72728804D02*
X225454423Y-72697229D01*
X221523424Y-69245065D02*
X221501396Y-69268172D01*
X222153761Y-71706060D02*
X222154519Y-71737980D01*
X223889409Y-65218710D02*
X223874606Y-65177030D01*
X223861638Y-65134514D02*
X223850553Y-65091212D01*
X227051580Y-72323133D02*
X227081371Y-72310193D01*
X222593798Y-70003952D02*
X222607124Y-69974483D01*
X222638463Y-69549243D02*
X222629495Y-69517664D01*
X225395089Y-72848104D02*
X225409779Y-72819413D01*
X222348610Y-72176536D02*
X222373417Y-72200135D01*
X228225894Y-70003952D02*
X228239221Y-69974483D01*
X222202463Y-71956446D02*
X222215402Y-71986235D01*
X226964049Y-69783572D02*
X226968280Y-69816860D01*
X224339642Y-72060364D02*
X224317609Y-72083473D01*
X225069019Y-73144073D02*
X225098493Y-73130745D01*
X223212470Y-72242668D02*
X223239003Y-72222103D01*
X222629820Y-71068008D02*
X222599141Y-71077906D01*
X226705661Y-72364973D02*
X226737405Y-72368783D01*
X223289521Y-72176403D02*
X223289521Y-72176403D01*
X227447516Y-71864900D02*
X227454365Y-71833570D01*
X226981559Y-69881799D02*
X226990524Y-69913367D01*
X229147708Y-71801713D02*
X229244082Y-71588552D01*
X226138790Y-71770139D02*
X226142595Y-71801881D01*
X223008696Y-71068008D02*
X222977668Y-71059635D01*
X221959734Y-69051058D02*
X221925931Y-69053628D01*
X221658023Y-66079381D02*
X221508306Y-66214840D01*
X226896712Y-72364992D02*
X226928277Y-72359665D01*
X227854857Y-69090555D02*
X227823939Y-69080097D01*
X227308833Y-69130494D02*
X227280965Y-69146514D01*
X228291522Y-69715567D02*
X228291522Y-69715567D01*
X227689201Y-73571639D02*
X227870997Y-73428775D01*
X229455878Y-68456514D02*
X229397442Y-68257634D01*
X222373568Y-71211934D02*
X222348742Y-71235545D01*
X221380869Y-69974487D02*
X221394192Y-70003956D01*
X227271685Y-72176986D02*
X227271685Y-72176986D01*
X223264844Y-71211828D02*
X223239146Y-71189763D01*
X223039176Y-72334070D02*
X223069440Y-72322644D01*
X226959492Y-71060025D02*
X226928168Y-71053170D01*
X226981559Y-69549270D02*
X226974131Y-69581462D01*
X226961480Y-69681324D02*
X226960615Y-69715567D01*
X224317938Y-74502856D02*
X224562318Y-74521440D01*
X226579457Y-65239306D02*
X226386553Y-65167760D01*
X227459691Y-71802004D02*
X227463495Y-71770260D01*
X229616008Y-69963110D02*
X229622270Y-69715488D01*
X229617479Y-69498848D02*
X229603243Y-69284663D01*
X223264706Y-72200015D02*
X223289521Y-72176403D01*
X227727401Y-69057857D02*
X227694100Y-69053627D01*
X226163148Y-71516931D02*
X226154776Y-71547959D01*
X220446519Y-67683800D02*
X220363987Y-67871074D01*
X222417263Y-70228910D02*
X222441407Y-70207995D01*
X226968280Y-69816860D02*
X226974131Y-69849616D01*
X226737319Y-71044031D02*
X226705578Y-71047839D01*
X221364398Y-66356389D02*
X221226502Y-66503827D01*
X226833107Y-72371076D02*
X226864969Y-72368795D01*
X222819036Y-72371405D02*
X222850958Y-72370640D01*
X226642766Y-72352784D02*
X226674095Y-72359640D01*
X221621927Y-70267229D02*
X221648924Y-70284538D01*
X227397226Y-69090564D02*
X227367005Y-69102477D01*
X222160623Y-71610536D02*
X222156813Y-71642279D01*
X227914552Y-69115787D02*
X227885076Y-69102466D01*
X224227320Y-65662845D02*
X224192966Y-65636365D01*
X224317609Y-72083473D02*
X224296694Y-72107617D01*
X227012896Y-69974487D02*
X227026220Y-70003956D01*
X226147923Y-71833445D02*
X226154774Y-71864773D01*
X227092790Y-69317450D02*
X227074239Y-69343537D01*
X222245849Y-72044157D02*
X222263356Y-72072171D01*
X228290656Y-69681317D02*
X228288086Y-69647518D01*
X224158233Y-72396807D02*
X224152378Y-72429582D01*
X226964049Y-69647531D02*
X226961480Y-69681324D01*
X220002578Y-69498848D02*
X219997787Y-69715488D01*
X228045611Y-73277521D02*
X228212742Y-73118178D01*
X226611732Y-72344405D02*
X226642766Y-72352784D01*
X227074239Y-69343537D02*
X227056933Y-69370533D01*
X221247929Y-72951049D02*
X221407266Y-73118178D01*
X224627547Y-65837048D02*
X224583596Y-65827757D01*
X223834219Y-65002438D02*
X223630548Y-65049059D01*
X221368957Y-69944276D02*
X221380869Y-69974487D01*
X221813347Y-65950214D02*
X221658023Y-66079381D01*
X222527219Y-70113577D02*
X222545772Y-70087492D01*
X224299499Y-65711245D02*
X224262847Y-65687821D01*
X220095569Y-70685271D02*
X220149306Y-70918082D01*
X221460736Y-69317450D02*
X221442189Y-69343537D01*
X224276873Y-72929059D02*
X224296624Y-72954197D01*
X221827672Y-70359935D02*
X221859868Y-70367366D01*
X224492882Y-73116048D02*
X224521570Y-73130745D01*
X228049342Y-70228910D02*
X228073488Y-70207995D01*
X224763406Y-65852842D02*
X224717499Y-65849639D01*
X227021195Y-71078305D02*
X226990521Y-71068404D01*
X222222764Y-69090555D02*
X222191847Y-69080097D01*
X224809949Y-71865492D02*
X224809949Y-71865492D01*
X221328588Y-69715567D02*
X221329454Y-69749793D01*
X224148145Y-72462891D02*
X224145574Y-72496693D01*
X226683086Y-74149513D02*
X226896252Y-74053139D01*
X220819658Y-72405973D02*
X220953823Y-72594644D01*
X226142595Y-71801881D02*
X226147923Y-71833445D01*
X223374870Y-72072037D02*
X223392398Y-72044024D01*
X227081243Y-71102678D02*
X227051456Y-71089730D01*
X222464498Y-69245035D02*
X222441387Y-69223006D01*
X224717499Y-65849639D02*
X224672197Y-65844358D01*
X220578617Y-72009205D02*
X220694489Y-72210726D01*
X222914783Y-71047456D02*
X222883043Y-71043650D01*
X227337526Y-70315259D02*
X227367005Y-70328586D01*
X227404893Y-71986669D02*
X227417832Y-71956877D01*
X224856368Y-65852842D02*
X224809870Y-65853920D01*
X221705480Y-70315259D02*
X221734956Y-70328586D01*
X221595839Y-70248676D02*
X221621927Y-70267229D01*
X225461852Y-72396807D02*
X225454433Y-72364607D01*
X227626068Y-69050193D02*
X227626068Y-69050193D01*
X221349532Y-69881799D02*
X221358497Y-69913367D01*
X226138792Y-71642585D02*
X226136508Y-71674443D01*
X224145574Y-72496693D02*
X224144707Y-72530945D01*
X226961480Y-69749793D02*
X226964049Y-69783572D01*
X221930782Y-73571639D02*
X222119448Y-73705810D01*
X225057583Y-74521440D02*
X225301967Y-74502856D01*
X224583596Y-65827757D02*
X224540392Y-65816531D01*
X224210348Y-72242403D02*
X224197019Y-72271882D01*
X227309146Y-65602556D02*
X227133417Y-65500587D01*
X220214154Y-71146434D02*
X220289812Y-71370025D01*
X226012595Y-74376191D02*
X226240954Y-74311341D01*
X226974131Y-69849616D02*
X226981559Y-69881799D01*
X228139551Y-70138712D02*
X228159308Y-70113577D01*
X222579092Y-69398361D02*
X222563068Y-69370498D01*
X222154519Y-71737980D02*
X222156800Y-71769841D01*
X227998112Y-70267217D02*
X228024202Y-70248664D01*
X229244082Y-71588552D02*
X229330250Y-71370025D01*
X223430262Y-65104194D02*
X223233563Y-65167642D01*
X227417779Y-71456077D02*
X227404831Y-71426286D01*
X224411942Y-73064160D02*
X224438027Y-73082714D01*
X223099408Y-71102255D02*
X223069625Y-71089318D01*
X221368948Y-69486777D02*
X221358490Y-69517694D01*
X223483863Y-71674051D02*
X223481580Y-71642193D01*
X227308833Y-70300562D02*
X227337526Y-70315259D01*
X224741998Y-73192936D02*
X224775788Y-73195506D01*
X227305275Y-73830985D02*
X227500526Y-73705810D01*
X225155048Y-73100024D02*
X225182045Y-73082714D01*
X222325013Y-72151717D02*
X222348610Y-72176536D01*
X224809949Y-74527703D02*
X225057583Y-74521440D01*
X220634263Y-67322272D02*
X220536678Y-67500799D01*
X222160604Y-71801583D02*
X222165930Y-71833148D01*
X229547240Y-68864466D02*
X229505878Y-68658859D01*
X228291522Y-69715567D02*
X228290656Y-69681317D01*
X226864969Y-72368795D02*
X226896712Y-72364992D01*
X227500526Y-73705810D02*
X227689201Y-73571639D01*
X225127183Y-73116048D02*
X225155048Y-73100024D01*
X227112542Y-69292315D02*
X227092790Y-69317450D01*
X224415733Y-65771730D02*
X224375989Y-65753247D01*
X226407742Y-72243111D02*
X226435050Y-72262151D01*
X227280965Y-70284538D02*
X227308833Y-70300562D01*
X221546561Y-70208006D02*
X221570704Y-70228921D01*
X225155096Y-71961810D02*
X225127228Y-71945790D01*
X228261601Y-69517664D02*
X228251138Y-69486745D01*
X227317248Y-71286499D02*
X227295162Y-71260790D01*
X222252981Y-69102466D02*
X222222764Y-69090555D01*
X225208184Y-71997667D02*
X225182096Y-71979116D01*
X224672197Y-65844358D02*
X224627547Y-65837048D01*
X226306953Y-71260778D02*
X226284891Y-71286476D01*
X226284975Y-72126323D02*
X226307060Y-72152032D01*
X221892621Y-69057859D02*
X221859845Y-69063709D01*
X221094819Y-66656951D02*
X220969552Y-66815559D01*
X225475323Y-72530945D02*
X225475323Y-72530945D01*
X224152378Y-72429582D02*
X224148145Y-72462891D01*
X228118635Y-70162855D02*
X228139551Y-70138712D01*
X229566819Y-70448304D02*
X229597423Y-70207483D01*
X222215464Y-71425873D02*
X222202516Y-71455665D01*
X225079515Y-65816544D02*
X225036288Y-65827765D01*
X224276938Y-72132754D02*
X224258384Y-72158843D01*
X225098493Y-73130745D02*
X225127183Y-73116048D01*
X225542798Y-74472251D02*
X225779775Y-74429929D01*
X225302552Y-72978343D02*
X225323464Y-72954197D01*
X225454433Y-72364607D02*
X225445477Y-72333025D01*
X226154776Y-71547959D02*
X226147926Y-71579284D01*
X221226502Y-66503827D02*
X221094819Y-66656951D01*
X226264349Y-71313003D02*
X226245328Y-71340299D01*
X225243991Y-65753279D02*
X225204231Y-65771756D01*
X221407266Y-73118178D02*
X221574388Y-73277521D01*
X223841397Y-65047171D02*
X223834219Y-65002438D01*
X227337909Y-72099918D02*
X227356939Y-72072611D01*
X225182045Y-73082714D02*
X225208133Y-73064160D01*
X226705578Y-71047839D02*
X226674014Y-71053170D01*
X228139551Y-69292282D02*
X228118635Y-69268141D01*
X222480946Y-72279307D02*
X222509606Y-72295293D01*
X223630548Y-65049059D02*
X223430262Y-65104194D01*
X225361765Y-72902969D02*
X225379070Y-72875970D01*
X226990524Y-69913367D02*
X227000984Y-69944276D01*
X222128081Y-69063706D02*
X222095315Y-69057857D01*
X220016814Y-69284663D02*
X220002578Y-69498848D01*
X222229865Y-72015492D02*
X222245849Y-72044157D01*
X226960615Y-69715567D02*
X226960615Y-69715567D01*
X224197019Y-72271882D02*
X224185101Y-72302103D01*
X227337526Y-69115801D02*
X227308833Y-69130494D01*
X225471912Y-72462891D02*
X225467692Y-72429582D01*
X229597423Y-70207483D02*
X229616008Y-69963110D01*
X227439105Y-71517020D02*
X227429203Y-71486342D01*
X224551042Y-73144073D02*
X224581256Y-73155989D01*
X222263445Y-71339927D02*
X222245928Y-71367945D01*
X227271685Y-72176986D02*
X227271685Y-72176986D01*
X222464517Y-70185963D02*
X222486550Y-70162855D01*
X227040913Y-69398397D02*
X227026220Y-69427087D01*
X225357172Y-65687870D02*
X225320508Y-65711288D01*
X221460759Y-70113585D02*
X221480511Y-70138721D01*
D10*
X226464285Y-60471071D02*
X226464285Y-58971071D01*
X226964285Y-60042500D01*
X227464285Y-58971071D01*
X227464285Y-60471071D01*
X228178571Y-60471071D02*
X228178571Y-58971071D01*
X228892857Y-60471071D02*
X228892857Y-58971071D01*
X229250000Y-58971071D01*
X229464285Y-59042500D01*
X229607142Y-59185357D01*
X229678571Y-59328214D01*
X229750000Y-59613928D01*
X229750000Y-59828214D01*
X229678571Y-60113928D01*
X229607142Y-60256785D01*
X229464285Y-60399642D01*
X229250000Y-60471071D01*
X228892857Y-60471071D01*
X230392857Y-60471071D02*
X230392857Y-58971071D01*
X228214285Y-62886071D02*
X228214285Y-61386071D01*
X228928571Y-62886071D02*
X228928571Y-61386071D01*
X229785714Y-62886071D01*
X229785714Y-61386071D01*
D11*
%TO.C,C*%
X223407142Y-126830476D02*
X223454761Y-126878095D01*
X223502380Y-127020952D01*
X223502380Y-127116190D01*
X223454761Y-127259047D01*
X223359523Y-127354285D01*
X223264285Y-127401904D01*
X223073809Y-127449523D01*
X222930952Y-127449523D01*
X222740476Y-127401904D01*
X222645238Y-127354285D01*
X222550000Y-127259047D01*
X222502380Y-127116190D01*
X222502380Y-127020952D01*
X222550000Y-126878095D01*
X222597619Y-126830476D01*
X220452380Y-127547619D02*
X220452380Y-128119047D01*
X220452380Y-127833333D02*
X219452380Y-127833333D01*
X219595238Y-127928571D01*
X219690476Y-128023809D01*
X219738095Y-128119047D01*
X219452380Y-126928571D02*
X219452380Y-126833333D01*
X219500000Y-126738095D01*
X219547619Y-126690476D01*
X219642857Y-126642857D01*
X219833333Y-126595238D01*
X220071428Y-126595238D01*
X220261904Y-126642857D01*
X220357142Y-126690476D01*
X220404761Y-126738095D01*
X220452380Y-126833333D01*
X220452380Y-126928571D01*
X220404761Y-127023809D01*
X220357142Y-127071428D01*
X220261904Y-127119047D01*
X220071428Y-127166666D01*
X219833333Y-127166666D01*
X219642857Y-127119047D01*
X219547619Y-127071428D01*
X219500000Y-127023809D01*
X219452380Y-126928571D01*
X219452380Y-125976190D02*
X219452380Y-125880952D01*
X219500000Y-125785714D01*
X219547619Y-125738095D01*
X219642857Y-125690476D01*
X219833333Y-125642857D01*
X220071428Y-125642857D01*
X220261904Y-125690476D01*
X220357142Y-125738095D01*
X220404761Y-125785714D01*
X220452380Y-125880952D01*
X220452380Y-125976190D01*
X220404761Y-126071428D01*
X220357142Y-126119047D01*
X220261904Y-126166666D01*
X220071428Y-126214285D01*
X219833333Y-126214285D01*
X219642857Y-126166666D01*
X219547619Y-126119047D01*
X219500000Y-126071428D01*
X219452380Y-125976190D01*
X219785714Y-125214285D02*
X220452380Y-125214285D01*
X219880952Y-125214285D02*
X219833333Y-125166666D01*
X219785714Y-125071428D01*
X219785714Y-124928571D01*
X219833333Y-124833333D01*
X219928571Y-124785714D01*
X220452380Y-124785714D01*
X219928571Y-123976190D02*
X219928571Y-124309523D01*
X220452380Y-124309523D02*
X219452380Y-124309523D01*
X219452380Y-123833333D01*
X223169523Y-135407142D02*
X223121904Y-135454761D01*
X222979047Y-135502380D01*
X222883809Y-135502380D01*
X222740952Y-135454761D01*
X222645714Y-135359523D01*
X222598095Y-135264285D01*
X222550476Y-135073809D01*
X222550476Y-134930952D01*
X222598095Y-134740476D01*
X222645714Y-134645238D01*
X222740952Y-134550000D01*
X222883809Y-134502380D01*
X222979047Y-134502380D01*
X223121904Y-134550000D01*
X223169523Y-134597619D01*
X221452380Y-137452380D02*
X220880952Y-137452380D01*
X221166666Y-137452380D02*
X221166666Y-136452380D01*
X221071428Y-136595238D01*
X220976190Y-136690476D01*
X220880952Y-136738095D01*
X222071428Y-136452380D02*
X222166666Y-136452380D01*
X222261904Y-136500000D01*
X222309523Y-136547619D01*
X222357142Y-136642857D01*
X222404761Y-136833333D01*
X222404761Y-137071428D01*
X222357142Y-137261904D01*
X222309523Y-137357142D01*
X222261904Y-137404761D01*
X222166666Y-137452380D01*
X222071428Y-137452380D01*
X221976190Y-137404761D01*
X221928571Y-137357142D01*
X221880952Y-137261904D01*
X221833333Y-137071428D01*
X221833333Y-136833333D01*
X221880952Y-136642857D01*
X221928571Y-136547619D01*
X221976190Y-136500000D01*
X222071428Y-136452380D01*
X223023809Y-136452380D02*
X223119047Y-136452380D01*
X223214285Y-136500000D01*
X223261904Y-136547619D01*
X223309523Y-136642857D01*
X223357142Y-136833333D01*
X223357142Y-137071428D01*
X223309523Y-137261904D01*
X223261904Y-137357142D01*
X223214285Y-137404761D01*
X223119047Y-137452380D01*
X223023809Y-137452380D01*
X222928571Y-137404761D01*
X222880952Y-137357142D01*
X222833333Y-137261904D01*
X222785714Y-137071428D01*
X222785714Y-136833333D01*
X222833333Y-136642857D01*
X222880952Y-136547619D01*
X222928571Y-136500000D01*
X223023809Y-136452380D01*
X223785714Y-136785714D02*
X223785714Y-137452380D01*
X223785714Y-136880952D02*
X223833333Y-136833333D01*
X223928571Y-136785714D01*
X224071428Y-136785714D01*
X224166666Y-136833333D01*
X224214285Y-136928571D01*
X224214285Y-137452380D01*
X225023809Y-136928571D02*
X224690476Y-136928571D01*
X224690476Y-137452380D02*
X224690476Y-136452380D01*
X225166666Y-136452380D01*
X202669523Y-135407142D02*
X202621904Y-135454761D01*
X202479047Y-135502380D01*
X202383809Y-135502380D01*
X202240952Y-135454761D01*
X202145714Y-135359523D01*
X202098095Y-135264285D01*
X202050476Y-135073809D01*
X202050476Y-134930952D01*
X202098095Y-134740476D01*
X202145714Y-134645238D01*
X202240952Y-134550000D01*
X202383809Y-134502380D01*
X202479047Y-134502380D01*
X202621904Y-134550000D01*
X202669523Y-134597619D01*
X200952380Y-136822380D02*
X200380952Y-136822380D01*
X200666666Y-136822380D02*
X200666666Y-135822380D01*
X200571428Y-135965238D01*
X200476190Y-136060476D01*
X200380952Y-136108095D01*
X201571428Y-135822380D02*
X201666666Y-135822380D01*
X201761904Y-135870000D01*
X201809523Y-135917619D01*
X201857142Y-136012857D01*
X201904761Y-136203333D01*
X201904761Y-136441428D01*
X201857142Y-136631904D01*
X201809523Y-136727142D01*
X201761904Y-136774761D01*
X201666666Y-136822380D01*
X201571428Y-136822380D01*
X201476190Y-136774761D01*
X201428571Y-136727142D01*
X201380952Y-136631904D01*
X201333333Y-136441428D01*
X201333333Y-136203333D01*
X201380952Y-136012857D01*
X201428571Y-135917619D01*
X201476190Y-135870000D01*
X201571428Y-135822380D01*
X202523809Y-135822380D02*
X202619047Y-135822380D01*
X202714285Y-135870000D01*
X202761904Y-135917619D01*
X202809523Y-136012857D01*
X202857142Y-136203333D01*
X202857142Y-136441428D01*
X202809523Y-136631904D01*
X202761904Y-136727142D01*
X202714285Y-136774761D01*
X202619047Y-136822380D01*
X202523809Y-136822380D01*
X202428571Y-136774761D01*
X202380952Y-136727142D01*
X202333333Y-136631904D01*
X202285714Y-136441428D01*
X202285714Y-136203333D01*
X202333333Y-136012857D01*
X202380952Y-135917619D01*
X202428571Y-135870000D01*
X202523809Y-135822380D01*
X203285714Y-136155714D02*
X203285714Y-136822380D01*
X203285714Y-136250952D02*
X203333333Y-136203333D01*
X203428571Y-136155714D01*
X203571428Y-136155714D01*
X203666666Y-136203333D01*
X203714285Y-136298571D01*
X203714285Y-136822380D01*
X204523809Y-136298571D02*
X204190476Y-136298571D01*
X204190476Y-136822380D02*
X204190476Y-135822380D01*
X204666666Y-135822380D01*
X202169523Y-126407142D02*
X202121904Y-126454761D01*
X201979047Y-126502380D01*
X201883809Y-126502380D01*
X201740952Y-126454761D01*
X201645714Y-126359523D01*
X201598095Y-126264285D01*
X201550476Y-126073809D01*
X201550476Y-125930952D01*
X201598095Y-125740476D01*
X201645714Y-125645238D01*
X201740952Y-125550000D01*
X201883809Y-125502380D01*
X201979047Y-125502380D01*
X202121904Y-125550000D01*
X202169523Y-125597619D01*
X200452380Y-129452380D02*
X199880952Y-129452380D01*
X200166666Y-129452380D02*
X200166666Y-128452380D01*
X200071428Y-128595238D01*
X199976190Y-128690476D01*
X199880952Y-128738095D01*
X201071428Y-128452380D02*
X201166666Y-128452380D01*
X201261904Y-128500000D01*
X201309523Y-128547619D01*
X201357142Y-128642857D01*
X201404761Y-128833333D01*
X201404761Y-129071428D01*
X201357142Y-129261904D01*
X201309523Y-129357142D01*
X201261904Y-129404761D01*
X201166666Y-129452380D01*
X201071428Y-129452380D01*
X200976190Y-129404761D01*
X200928571Y-129357142D01*
X200880952Y-129261904D01*
X200833333Y-129071428D01*
X200833333Y-128833333D01*
X200880952Y-128642857D01*
X200928571Y-128547619D01*
X200976190Y-128500000D01*
X201071428Y-128452380D01*
X202023809Y-128452380D02*
X202119047Y-128452380D01*
X202214285Y-128500000D01*
X202261904Y-128547619D01*
X202309523Y-128642857D01*
X202357142Y-128833333D01*
X202357142Y-129071428D01*
X202309523Y-129261904D01*
X202261904Y-129357142D01*
X202214285Y-129404761D01*
X202119047Y-129452380D01*
X202023809Y-129452380D01*
X201928571Y-129404761D01*
X201880952Y-129357142D01*
X201833333Y-129261904D01*
X201785714Y-129071428D01*
X201785714Y-128833333D01*
X201833333Y-128642857D01*
X201880952Y-128547619D01*
X201928571Y-128500000D01*
X202023809Y-128452380D01*
X202785714Y-128785714D02*
X202785714Y-129452380D01*
X202785714Y-128880952D02*
X202833333Y-128833333D01*
X202928571Y-128785714D01*
X203071428Y-128785714D01*
X203166666Y-128833333D01*
X203214285Y-128928571D01*
X203214285Y-129452380D01*
X204023809Y-128928571D02*
X203690476Y-128928571D01*
X203690476Y-129452380D02*
X203690476Y-128452380D01*
X204166666Y-128452380D01*
%TO.C,C1*%
X198357142Y-113166666D02*
X198404761Y-113214285D01*
X198452380Y-113357142D01*
X198452380Y-113452380D01*
X198404761Y-113595238D01*
X198309523Y-113690476D01*
X198214285Y-113738095D01*
X198023809Y-113785714D01*
X197880952Y-113785714D01*
X197690476Y-113738095D01*
X197595238Y-113690476D01*
X197500000Y-113595238D01*
X197452380Y-113452380D01*
X197452380Y-113357142D01*
X197500000Y-113214285D01*
X197547619Y-113166666D01*
X198452380Y-112214285D02*
X198452380Y-112785714D01*
X198452380Y-112500000D02*
X197452380Y-112500000D01*
X197595238Y-112595238D01*
X197690476Y-112690476D01*
X197738095Y-112785714D01*
X194228619Y-117119047D02*
X194181000Y-117071428D01*
X194133380Y-116976190D01*
X194133380Y-116738095D01*
X194181000Y-116642857D01*
X194228619Y-116595238D01*
X194323857Y-116547619D01*
X194419095Y-116547619D01*
X194561952Y-116595238D01*
X195133380Y-117166666D01*
X195133380Y-116547619D01*
X194228619Y-116166666D02*
X194181000Y-116119047D01*
X194133380Y-116023809D01*
X194133380Y-115785714D01*
X194181000Y-115690476D01*
X194228619Y-115642857D01*
X194323857Y-115595238D01*
X194419095Y-115595238D01*
X194561952Y-115642857D01*
X195133380Y-116214285D01*
X195133380Y-115595238D01*
X194133380Y-114976190D02*
X194133380Y-114880952D01*
X194181000Y-114785714D01*
X194228619Y-114738095D01*
X194323857Y-114690476D01*
X194514333Y-114642857D01*
X194752428Y-114642857D01*
X194942904Y-114690476D01*
X195038142Y-114738095D01*
X195085761Y-114785714D01*
X195133380Y-114880952D01*
X195133380Y-114976190D01*
X195085761Y-115071428D01*
X195038142Y-115119047D01*
X194942904Y-115166666D01*
X194752428Y-115214285D01*
X194514333Y-115214285D01*
X194323857Y-115166666D01*
X194228619Y-115119047D01*
X194181000Y-115071428D01*
X194133380Y-114976190D01*
X194466714Y-113785714D02*
X195133380Y-113785714D01*
X194466714Y-114214285D02*
X194990523Y-114214285D01*
X195085761Y-114166666D01*
X195133380Y-114071428D01*
X195133380Y-113928571D01*
X195085761Y-113833333D01*
X195038142Y-113785714D01*
X194609571Y-112976190D02*
X194609571Y-113309523D01*
X195133380Y-113309523D02*
X194133380Y-113309523D01*
X194133380Y-112833333D01*
%TO.C,D1*%
X229452380Y-122138095D02*
X228452380Y-122138095D01*
X228452380Y-121900000D01*
X228500000Y-121757142D01*
X228595238Y-121661904D01*
X228690476Y-121614285D01*
X228880952Y-121566666D01*
X229023809Y-121566666D01*
X229214285Y-121614285D01*
X229309523Y-121661904D01*
X229404761Y-121757142D01*
X229452380Y-121900000D01*
X229452380Y-122138095D01*
X229452380Y-120614285D02*
X229452380Y-121185714D01*
X229452380Y-120900000D02*
X228452380Y-120900000D01*
X228595238Y-120995238D01*
X228690476Y-121090476D01*
X228738095Y-121185714D01*
X226982380Y-123142857D02*
X226982380Y-123714285D01*
X226982380Y-123428571D02*
X225982380Y-123428571D01*
X226125238Y-123523809D01*
X226220476Y-123619047D01*
X226268095Y-123714285D01*
X226982380Y-122714285D02*
X225982380Y-122714285D01*
X226982380Y-122142857D01*
X225982380Y-122142857D01*
X226315714Y-121238095D02*
X226982380Y-121238095D01*
X225934761Y-121476190D02*
X226649047Y-121714285D01*
X226649047Y-121095238D01*
X225982380Y-120523809D02*
X225982380Y-120428571D01*
X226030000Y-120333333D01*
X226077619Y-120285714D01*
X226172857Y-120238095D01*
X226363333Y-120190476D01*
X226601428Y-120190476D01*
X226791904Y-120238095D01*
X226887142Y-120285714D01*
X226934761Y-120333333D01*
X226982380Y-120428571D01*
X226982380Y-120523809D01*
X226934761Y-120619047D01*
X226887142Y-120666666D01*
X226791904Y-120714285D01*
X226601428Y-120761904D01*
X226363333Y-120761904D01*
X226172857Y-120714285D01*
X226077619Y-120666666D01*
X226030000Y-120619047D01*
X225982380Y-120523809D01*
X225982380Y-119571428D02*
X225982380Y-119476190D01*
X226030000Y-119380952D01*
X226077619Y-119333333D01*
X226172857Y-119285714D01*
X226363333Y-119238095D01*
X226601428Y-119238095D01*
X226791904Y-119285714D01*
X226887142Y-119333333D01*
X226934761Y-119380952D01*
X226982380Y-119476190D01*
X226982380Y-119571428D01*
X226934761Y-119666666D01*
X226887142Y-119714285D01*
X226791904Y-119761904D01*
X226601428Y-119809523D01*
X226363333Y-119809523D01*
X226172857Y-119761904D01*
X226077619Y-119714285D01*
X226030000Y-119666666D01*
X225982380Y-119571428D01*
X226982380Y-118285714D02*
X226982380Y-118857142D01*
X226982380Y-118571428D02*
X225982380Y-118571428D01*
X226125238Y-118666666D01*
X226220476Y-118761904D01*
X226268095Y-118857142D01*
%TO.C,*%
X220547619Y-104761904D02*
X220500000Y-104714285D01*
X220452380Y-104619047D01*
X220452380Y-104380952D01*
X220500000Y-104285714D01*
X220547619Y-104238095D01*
X220642857Y-104190476D01*
X220738095Y-104190476D01*
X220880952Y-104238095D01*
X221452380Y-104809523D01*
X221452380Y-104190476D01*
X220547619Y-103809523D02*
X220500000Y-103761904D01*
X220452380Y-103666666D01*
X220452380Y-103428571D01*
X220500000Y-103333333D01*
X220547619Y-103285714D01*
X220642857Y-103238095D01*
X220738095Y-103238095D01*
X220880952Y-103285714D01*
X221452380Y-103857142D01*
X221452380Y-103238095D01*
X205761904Y-101627619D02*
X205809523Y-101580000D01*
X205904761Y-101532380D01*
X206142857Y-101532380D01*
X206238095Y-101580000D01*
X206285714Y-101627619D01*
X206333333Y-101722857D01*
X206333333Y-101818095D01*
X206285714Y-101960952D01*
X205714285Y-102532380D01*
X206333333Y-102532380D01*
X206714285Y-101627619D02*
X206761904Y-101580000D01*
X206857142Y-101532380D01*
X207095238Y-101532380D01*
X207190476Y-101580000D01*
X207238095Y-101627619D01*
X207285714Y-101722857D01*
X207285714Y-101818095D01*
X207238095Y-101960952D01*
X206666666Y-102532380D01*
X207285714Y-102532380D01*
X207904761Y-101532380D02*
X208000000Y-101532380D01*
X208095238Y-101580000D01*
X208142857Y-101627619D01*
X208190476Y-101722857D01*
X208238095Y-101913333D01*
X208238095Y-102151428D01*
X208190476Y-102341904D01*
X208142857Y-102437142D01*
X208095238Y-102484761D01*
X208000000Y-102532380D01*
X207904761Y-102532380D01*
X207809523Y-102484761D01*
X207761904Y-102437142D01*
X207714285Y-102341904D01*
X207666666Y-102151428D01*
X207666666Y-101913333D01*
X207714285Y-101722857D01*
X207761904Y-101627619D01*
X207809523Y-101580000D01*
X207904761Y-101532380D01*
X212761904Y-98467619D02*
X212809523Y-98420000D01*
X212904761Y-98372380D01*
X213142857Y-98372380D01*
X213238095Y-98420000D01*
X213285714Y-98467619D01*
X213333333Y-98562857D01*
X213333333Y-98658095D01*
X213285714Y-98800952D01*
X212714285Y-99372380D01*
X213333333Y-99372380D01*
X213714285Y-98467619D02*
X213761904Y-98420000D01*
X213857142Y-98372380D01*
X214095238Y-98372380D01*
X214190476Y-98420000D01*
X214238095Y-98467619D01*
X214285714Y-98562857D01*
X214285714Y-98658095D01*
X214238095Y-98800952D01*
X213666666Y-99372380D01*
X214285714Y-99372380D01*
X214904761Y-98372380D02*
X215000000Y-98372380D01*
X215095238Y-98420000D01*
X215142857Y-98467619D01*
X215190476Y-98562857D01*
X215238095Y-98753333D01*
X215238095Y-98991428D01*
X215190476Y-99181904D01*
X215142857Y-99277142D01*
X215095238Y-99324761D01*
X215000000Y-99372380D01*
X214904761Y-99372380D01*
X214809523Y-99324761D01*
X214761904Y-99277142D01*
X214714285Y-99181904D01*
X214666666Y-98991428D01*
X214666666Y-98753333D01*
X214714285Y-98562857D01*
X214761904Y-98467619D01*
X214809523Y-98420000D01*
X214904761Y-98372380D01*
%TO.C,REF\u002A\u002A*%
X225166666Y-132452380D02*
X225357142Y-132452380D01*
X225452380Y-132500000D01*
X225547619Y-132595238D01*
X225595238Y-132785714D01*
X225595238Y-133119047D01*
X225547619Y-133309523D01*
X225452380Y-133404761D01*
X225357142Y-133452380D01*
X225166666Y-133452380D01*
X225071428Y-133404761D01*
X224976190Y-133309523D01*
X224928571Y-133119047D01*
X224928571Y-132785714D01*
X224976190Y-132595238D01*
X225071428Y-132500000D01*
X225166666Y-132452380D01*
X226452380Y-132785714D02*
X226452380Y-133452380D01*
X226023809Y-132785714D02*
X226023809Y-133309523D01*
X226071428Y-133404761D01*
X226166666Y-133452380D01*
X226309523Y-133452380D01*
X226404761Y-133404761D01*
X226452380Y-133357142D01*
X226785714Y-132785714D02*
X227166666Y-132785714D01*
X226928571Y-132452380D02*
X226928571Y-133309523D01*
X226976190Y-133404761D01*
X227071428Y-133452380D01*
X227166666Y-133452380D01*
X199232380Y-133452380D02*
X198232380Y-133452380D01*
X198565714Y-132976190D02*
X199232380Y-132976190D01*
X198660952Y-132976190D02*
X198613333Y-132928571D01*
X198565714Y-132833333D01*
X198565714Y-132690476D01*
X198613333Y-132595238D01*
X198708571Y-132547619D01*
X199232380Y-132547619D01*
X220902380Y-121404761D02*
X220426190Y-121738095D01*
X220902380Y-121976190D02*
X219902380Y-121976190D01*
X219902380Y-121595238D01*
X219950000Y-121500000D01*
X219997619Y-121452380D01*
X220092857Y-121404761D01*
X220235714Y-121404761D01*
X220330952Y-121452380D01*
X220378571Y-121500000D01*
X220426190Y-121595238D01*
X220426190Y-121976190D01*
X220854761Y-120595238D02*
X220902380Y-120690476D01*
X220902380Y-120880952D01*
X220854761Y-120976190D01*
X220759523Y-121023809D01*
X220378571Y-121023809D01*
X220283333Y-120976190D01*
X220235714Y-120880952D01*
X220235714Y-120690476D01*
X220283333Y-120595238D01*
X220378571Y-120547619D01*
X220473809Y-120547619D01*
X220569047Y-121023809D01*
X220235714Y-120261904D02*
X220235714Y-119880952D01*
X219902380Y-120119047D02*
X220759523Y-120119047D01*
X220854761Y-120071428D01*
X220902380Y-119976190D01*
X220902380Y-119880952D01*
X193854761Y-127619047D02*
X193902380Y-127476190D01*
X193902380Y-127238095D01*
X193854761Y-127142857D01*
X193807142Y-127095238D01*
X193711904Y-127047619D01*
X193616666Y-127047619D01*
X193521428Y-127095238D01*
X193473809Y-127142857D01*
X193426190Y-127238095D01*
X193378571Y-127428571D01*
X193330952Y-127523809D01*
X193283333Y-127571428D01*
X193188095Y-127619047D01*
X193092857Y-127619047D01*
X192997619Y-127571428D01*
X192950000Y-127523809D01*
X192902380Y-127428571D01*
X192902380Y-127190476D01*
X192950000Y-127047619D01*
X193854761Y-126238095D02*
X193902380Y-126333333D01*
X193902380Y-126523809D01*
X193854761Y-126619047D01*
X193759523Y-126666666D01*
X193378571Y-126666666D01*
X193283333Y-126619047D01*
X193235714Y-126523809D01*
X193235714Y-126333333D01*
X193283333Y-126238095D01*
X193378571Y-126190476D01*
X193473809Y-126190476D01*
X193569047Y-126666666D01*
X193235714Y-125761904D02*
X193902380Y-125761904D01*
X193330952Y-125761904D02*
X193283333Y-125714285D01*
X193235714Y-125619047D01*
X193235714Y-125476190D01*
X193283333Y-125380952D01*
X193378571Y-125333333D01*
X193902380Y-125333333D01*
X193902380Y-124428571D02*
X192902380Y-124428571D01*
X193854761Y-124428571D02*
X193902380Y-124523809D01*
X193902380Y-124714285D01*
X193854761Y-124809523D01*
X193807142Y-124857142D01*
X193711904Y-124904761D01*
X193426190Y-124904761D01*
X193330952Y-124857142D01*
X193283333Y-124809523D01*
X193235714Y-124714285D01*
X193235714Y-124523809D01*
X193283333Y-124428571D01*
X225950000Y-131642857D02*
X225902380Y-131738095D01*
X225902380Y-131880952D01*
X225950000Y-132023809D01*
X226045238Y-132119047D01*
X226140476Y-132166666D01*
X226330952Y-132214285D01*
X226473809Y-132214285D01*
X226664285Y-132166666D01*
X226759523Y-132119047D01*
X226854761Y-132023809D01*
X226902380Y-131880952D01*
X226902380Y-131785714D01*
X226854761Y-131642857D01*
X226807142Y-131595238D01*
X226473809Y-131595238D01*
X226473809Y-131785714D01*
X226235714Y-131166666D02*
X226902380Y-131166666D01*
X226330952Y-131166666D02*
X226283333Y-131119047D01*
X226235714Y-131023809D01*
X226235714Y-130880952D01*
X226283333Y-130785714D01*
X226378571Y-130738095D01*
X226902380Y-130738095D01*
X226902380Y-129833333D02*
X225902380Y-129833333D01*
X226854761Y-129833333D02*
X226902380Y-129928571D01*
X226902380Y-130119047D01*
X226854761Y-130214285D01*
X226807142Y-130261904D01*
X226711904Y-130309523D01*
X226426190Y-130309523D01*
X226330952Y-130261904D01*
X226283333Y-130214285D01*
X226235714Y-130119047D01*
X226235714Y-129928571D01*
X226283333Y-129833333D01*
X219950000Y-116642857D02*
X219902380Y-116738095D01*
X219902380Y-116880952D01*
X219950000Y-117023809D01*
X220045238Y-117119047D01*
X220140476Y-117166666D01*
X220330952Y-117214285D01*
X220473809Y-117214285D01*
X220664285Y-117166666D01*
X220759523Y-117119047D01*
X220854761Y-117023809D01*
X220902380Y-116880952D01*
X220902380Y-116785714D01*
X220854761Y-116642857D01*
X220807142Y-116595238D01*
X220473809Y-116595238D01*
X220473809Y-116785714D01*
X220235714Y-116166666D02*
X220902380Y-116166666D01*
X220330952Y-116166666D02*
X220283333Y-116119047D01*
X220235714Y-116023809D01*
X220235714Y-115880952D01*
X220283333Y-115785714D01*
X220378571Y-115738095D01*
X220902380Y-115738095D01*
X220902380Y-114833333D02*
X219902380Y-114833333D01*
X220854761Y-114833333D02*
X220902380Y-114928571D01*
X220902380Y-115119047D01*
X220854761Y-115214285D01*
X220807142Y-115261904D01*
X220711904Y-115309523D01*
X220426190Y-115309523D01*
X220330952Y-115261904D01*
X220283333Y-115214285D01*
X220235714Y-115119047D01*
X220235714Y-114928571D01*
X220283333Y-114833333D01*
X198500000Y-129942857D02*
X198452380Y-130038095D01*
X198452380Y-130180952D01*
X198500000Y-130323809D01*
X198595238Y-130419047D01*
X198690476Y-130466666D01*
X198880952Y-130514285D01*
X199023809Y-130514285D01*
X199214285Y-130466666D01*
X199309523Y-130419047D01*
X199404761Y-130323809D01*
X199452380Y-130180952D01*
X199452380Y-130085714D01*
X199404761Y-129942857D01*
X199357142Y-129895238D01*
X199023809Y-129895238D01*
X199023809Y-130085714D01*
X198785714Y-129466666D02*
X199452380Y-129466666D01*
X198880952Y-129466666D02*
X198833333Y-129419047D01*
X198785714Y-129323809D01*
X198785714Y-129180952D01*
X198833333Y-129085714D01*
X198928571Y-129038095D01*
X199452380Y-129038095D01*
X199452380Y-128133333D02*
X198452380Y-128133333D01*
X199404761Y-128133333D02*
X199452380Y-128228571D01*
X199452380Y-128419047D01*
X199404761Y-128514285D01*
X199357142Y-128561904D01*
X199261904Y-128609523D01*
X198976190Y-128609523D01*
X198880952Y-128561904D01*
X198833333Y-128514285D01*
X198785714Y-128419047D01*
X198785714Y-128228571D01*
X198833333Y-128133333D01*
X192950000Y-122642857D02*
X192902380Y-122738095D01*
X192902380Y-122880952D01*
X192950000Y-123023809D01*
X193045238Y-123119047D01*
X193140476Y-123166666D01*
X193330952Y-123214285D01*
X193473809Y-123214285D01*
X193664285Y-123166666D01*
X193759523Y-123119047D01*
X193854761Y-123023809D01*
X193902380Y-122880952D01*
X193902380Y-122785714D01*
X193854761Y-122642857D01*
X193807142Y-122595238D01*
X193473809Y-122595238D01*
X193473809Y-122785714D01*
X193235714Y-122166666D02*
X193902380Y-122166666D01*
X193330952Y-122166666D02*
X193283333Y-122119047D01*
X193235714Y-122023809D01*
X193235714Y-121880952D01*
X193283333Y-121785714D01*
X193378571Y-121738095D01*
X193902380Y-121738095D01*
X193902380Y-120833333D02*
X192902380Y-120833333D01*
X193854761Y-120833333D02*
X193902380Y-120928571D01*
X193902380Y-121119047D01*
X193854761Y-121214285D01*
X193807142Y-121261904D01*
X193711904Y-121309523D01*
X193426190Y-121309523D01*
X193330952Y-121261904D01*
X193283333Y-121214285D01*
X193235714Y-121119047D01*
X193235714Y-120928571D01*
X193283333Y-120833333D01*
%TO.C,NANO*%
X201228095Y-101582380D02*
X201228095Y-100582380D01*
X201799523Y-101582380D01*
X201799523Y-100582380D01*
X202228095Y-101296666D02*
X202704285Y-101296666D01*
X202132857Y-101582380D02*
X202466190Y-100582380D01*
X202799523Y-101582380D01*
X203132857Y-101582380D02*
X203132857Y-100582380D01*
X203704285Y-101582380D01*
X203704285Y-100582380D01*
X204370952Y-100582380D02*
X204561428Y-100582380D01*
X204656666Y-100630000D01*
X204751904Y-100725238D01*
X204799523Y-100915714D01*
X204799523Y-101249047D01*
X204751904Y-101439523D01*
X204656666Y-101534761D01*
X204561428Y-101582380D01*
X204370952Y-101582380D01*
X204275714Y-101534761D01*
X204180476Y-101439523D01*
X204132857Y-101249047D01*
X204132857Y-100915714D01*
X204180476Y-100725238D01*
X204275714Y-100630000D01*
X204370952Y-100582380D01*
%TO.C,*%
%TO.C,REF\u002A\u002A*%
X226800000Y-108642857D02*
X226752380Y-108738095D01*
X226752380Y-108880952D01*
X226800000Y-109023809D01*
X226895238Y-109119047D01*
X226990476Y-109166666D01*
X227180952Y-109214285D01*
X227323809Y-109214285D01*
X227514285Y-109166666D01*
X227609523Y-109119047D01*
X227704761Y-109023809D01*
X227752380Y-108880952D01*
X227752380Y-108785714D01*
X227704761Y-108642857D01*
X227657142Y-108595238D01*
X227323809Y-108595238D01*
X227323809Y-108785714D01*
X227085714Y-108166666D02*
X227752380Y-108166666D01*
X227180952Y-108166666D02*
X227133333Y-108119047D01*
X227085714Y-108023809D01*
X227085714Y-107880952D01*
X227133333Y-107785714D01*
X227228571Y-107738095D01*
X227752380Y-107738095D01*
X227752380Y-106833333D02*
X226752380Y-106833333D01*
X227704761Y-106833333D02*
X227752380Y-106928571D01*
X227752380Y-107119047D01*
X227704761Y-107214285D01*
X227657142Y-107261904D01*
X227561904Y-107309523D01*
X227276190Y-107309523D01*
X227180952Y-107261904D01*
X227133333Y-107214285D01*
X227085714Y-107119047D01*
X227085714Y-106928571D01*
X227133333Y-106833333D01*
%TO.C,ADG436*%
X210143333Y-115836666D02*
X210619523Y-115836666D01*
X210048095Y-116122380D02*
X210381428Y-115122380D01*
X210714761Y-116122380D01*
X211048095Y-116122380D02*
X211048095Y-115122380D01*
X211286190Y-115122380D01*
X211429047Y-115170000D01*
X211524285Y-115265238D01*
X211571904Y-115360476D01*
X211619523Y-115550952D01*
X211619523Y-115693809D01*
X211571904Y-115884285D01*
X211524285Y-115979523D01*
X211429047Y-116074761D01*
X211286190Y-116122380D01*
X211048095Y-116122380D01*
X212571904Y-115170000D02*
X212476666Y-115122380D01*
X212333809Y-115122380D01*
X212190952Y-115170000D01*
X212095714Y-115265238D01*
X212048095Y-115360476D01*
X212000476Y-115550952D01*
X212000476Y-115693809D01*
X212048095Y-115884285D01*
X212095714Y-115979523D01*
X212190952Y-116074761D01*
X212333809Y-116122380D01*
X212429047Y-116122380D01*
X212571904Y-116074761D01*
X212619523Y-116027142D01*
X212619523Y-115693809D01*
X212429047Y-115693809D01*
X213476666Y-115455714D02*
X213476666Y-116122380D01*
X213238571Y-115074761D02*
X213000476Y-115789047D01*
X213619523Y-115789047D01*
X213905238Y-115122380D02*
X214524285Y-115122380D01*
X214190952Y-115503333D01*
X214333809Y-115503333D01*
X214429047Y-115550952D01*
X214476666Y-115598571D01*
X214524285Y-115693809D01*
X214524285Y-115931904D01*
X214476666Y-116027142D01*
X214429047Y-116074761D01*
X214333809Y-116122380D01*
X214048095Y-116122380D01*
X213952857Y-116074761D01*
X213905238Y-116027142D01*
X215381428Y-115122380D02*
X215190952Y-115122380D01*
X215095714Y-115170000D01*
X215048095Y-115217619D01*
X214952857Y-115360476D01*
X214905238Y-115550952D01*
X214905238Y-115931904D01*
X214952857Y-116027142D01*
X215000476Y-116074761D01*
X215095714Y-116122380D01*
X215286190Y-116122380D01*
X215381428Y-116074761D01*
X215429047Y-116027142D01*
X215476666Y-115931904D01*
X215476666Y-115693809D01*
X215429047Y-115598571D01*
X215381428Y-115550952D01*
X215286190Y-115503333D01*
X215095714Y-115503333D01*
X215000476Y-115550952D01*
X214952857Y-115598571D01*
X214905238Y-115693809D01*
%TO.C,REF\u002A\u002A*%
X228452380Y-101619047D02*
X228452380Y-101428571D01*
X228404761Y-101333333D01*
X228357142Y-101285714D01*
X228214285Y-101190476D01*
X228023809Y-101142857D01*
X227642857Y-101142857D01*
X227547619Y-101190476D01*
X227500000Y-101238095D01*
X227452380Y-101333333D01*
X227452380Y-101523809D01*
X227500000Y-101619047D01*
X227547619Y-101666666D01*
X227642857Y-101714285D01*
X227880952Y-101714285D01*
X227976190Y-101666666D01*
X228023809Y-101619047D01*
X228071428Y-101523809D01*
X228071428Y-101333333D01*
X228023809Y-101238095D01*
X227976190Y-101190476D01*
X227880952Y-101142857D01*
X227452380Y-100857142D02*
X228452380Y-100523809D01*
X227452380Y-100190476D01*
D14*
X200803464Y-55000000D02*
X200688559Y-54942547D01*
X200516202Y-54942547D01*
X200343845Y-55000000D01*
X200228940Y-55114904D01*
X200171488Y-55229809D01*
X200114035Y-55459619D01*
X200114035Y-55631976D01*
X200171488Y-55861785D01*
X200228940Y-55976690D01*
X200343845Y-56091595D01*
X200516202Y-56149047D01*
X200631107Y-56149047D01*
X200803464Y-56091595D01*
X200860916Y-56034142D01*
X200860916Y-55631976D01*
X200631107Y-55631976D01*
X201895059Y-56149047D02*
X201895059Y-55517071D01*
X201837607Y-55402166D01*
X201722702Y-55344714D01*
X201492893Y-55344714D01*
X201377988Y-55402166D01*
X201895059Y-56091595D02*
X201780154Y-56149047D01*
X201492893Y-56149047D01*
X201377988Y-56091595D01*
X201320535Y-55976690D01*
X201320535Y-55861785D01*
X201377988Y-55746880D01*
X201492893Y-55689428D01*
X201780154Y-55689428D01*
X201895059Y-55631976D01*
X202297226Y-55344714D02*
X202756845Y-55344714D01*
X202469583Y-54942547D02*
X202469583Y-55976690D01*
X202527035Y-56091595D01*
X202641940Y-56149047D01*
X202756845Y-56149047D01*
X203618631Y-56091595D02*
X203503726Y-56149047D01*
X203273916Y-56149047D01*
X203159012Y-56091595D01*
X203101559Y-55976690D01*
X203101559Y-55517071D01*
X203159012Y-55402166D01*
X203273916Y-55344714D01*
X203503726Y-55344714D01*
X203618631Y-55402166D01*
X203676083Y-55517071D01*
X203676083Y-55631976D01*
X203101559Y-55746880D01*
D15*
X207586399Y-56208038D02*
X208183904Y-56208038D01*
X207862171Y-56575733D01*
X208000056Y-56575733D01*
X208091980Y-56621695D01*
X208137942Y-56667657D01*
X208183904Y-56759580D01*
X208183904Y-56989390D01*
X208137942Y-57081314D01*
X208091980Y-57127276D01*
X208000056Y-57173238D01*
X207724285Y-57173238D01*
X207632361Y-57127276D01*
X207586399Y-57081314D01*
X218397904Y-57173238D02*
X217846361Y-57173238D01*
X218122132Y-57173238D02*
X218122132Y-56208038D01*
X218030209Y-56345923D01*
X217938285Y-56437847D01*
X217846361Y-56483809D01*
D11*
%TO.C,*%
D16*
%TO.C,C*%
X224370000Y-123280000D02*
X224370000Y-130720000D01*
X224370000Y-123280000D02*
X221630000Y-123280000D01*
X224370000Y-130720000D02*
X221630000Y-130720000D01*
X221630000Y-123280000D02*
X221630000Y-130720000D01*
X226720000Y-136370000D02*
X219280000Y-136370000D01*
X226720000Y-136370000D02*
X226720000Y-133630000D01*
X219280000Y-136370000D02*
X219280000Y-133630000D01*
X226720000Y-133630000D02*
X219280000Y-133630000D01*
X206220000Y-136370000D02*
X198780000Y-136370000D01*
X206220000Y-136370000D02*
X206220000Y-133630000D01*
X198780000Y-136370000D02*
X198780000Y-133630000D01*
X206220000Y-133630000D02*
X198780000Y-133630000D01*
X205720000Y-127370000D02*
X198280000Y-127370000D01*
X205720000Y-127370000D02*
X205720000Y-124630000D01*
X198280000Y-127370000D02*
X198280000Y-124630000D01*
X205720000Y-124630000D02*
X198280000Y-124630000D01*
%TO.C,C1*%
X194960000Y-110811000D02*
X193935000Y-110811000D01*
X198224000Y-110571000D02*
X197040000Y-110571000D01*
X194960000Y-110451000D02*
X193710000Y-110451000D01*
X198565000Y-109530000D02*
X197040000Y-109530000D01*
X194960000Y-110291000D02*
X193635000Y-110291000D01*
X194960000Y-110731000D02*
X193878000Y-110731000D01*
X196518000Y-111811000D02*
X195482000Y-111811000D01*
X197605000Y-111291000D02*
X197040000Y-111291000D01*
X198035000Y-110851000D02*
X197040000Y-110851000D01*
X197475000Y-106445225D02*
X197475000Y-106945225D01*
X198536000Y-109730000D02*
X197040000Y-109730000D01*
X194960000Y-110931000D02*
X194029000Y-110931000D01*
X198348000Y-110331000D02*
X197040000Y-110331000D01*
X194960000Y-109690000D02*
X193457000Y-109690000D01*
X197011000Y-111651000D02*
X194989000Y-111651000D01*
X197971000Y-110931000D02*
X197040000Y-110931000D01*
X198573000Y-109450000D02*
X193427000Y-109450000D01*
X194960000Y-111371000D02*
X194500000Y-111371000D01*
X194960000Y-110891000D02*
X193996000Y-110891000D01*
X197251000Y-111531000D02*
X197040000Y-111531000D01*
X194960000Y-111251000D02*
X194347000Y-111251000D01*
X198065000Y-110811000D02*
X197040000Y-110811000D01*
X194960000Y-109650000D02*
X193450000Y-109650000D01*
X198290000Y-110451000D02*
X197040000Y-110451000D01*
X194960000Y-110171000D02*
X193586000Y-110171000D01*
X197383000Y-111451000D02*
X197040000Y-111451000D01*
X198501000Y-109890000D02*
X197040000Y-109890000D01*
X198442000Y-110091000D02*
X197040000Y-110091000D01*
X197901000Y-111011000D02*
X197040000Y-111011000D01*
X194960000Y-111451000D02*
X194617000Y-111451000D01*
X197178000Y-111571000D02*
X194822000Y-111571000D01*
X197864000Y-111051000D02*
X197040000Y-111051000D01*
X198578000Y-109370000D02*
X193422000Y-109370000D01*
X198480000Y-109971000D02*
X197040000Y-109971000D01*
X196805000Y-111731000D02*
X195195000Y-111731000D01*
X194960000Y-111011000D02*
X194099000Y-111011000D01*
X194960000Y-109570000D02*
X193439000Y-109570000D01*
X194960000Y-111091000D02*
X194174000Y-111091000D01*
X198569000Y-109490000D02*
X197040000Y-109490000D01*
X198550000Y-109650000D02*
X197040000Y-109650000D01*
X198528000Y-109770000D02*
X197040000Y-109770000D01*
X198122000Y-110731000D02*
X197040000Y-110731000D01*
X198580000Y-109290000D02*
X193420000Y-109290000D01*
X194960000Y-111291000D02*
X194395000Y-111291000D01*
X198382000Y-110251000D02*
X197040000Y-110251000D01*
X198579000Y-109330000D02*
X193421000Y-109330000D01*
X194960000Y-110691000D02*
X193851000Y-110691000D01*
X198428000Y-110131000D02*
X197040000Y-110131000D01*
X196284000Y-111851000D02*
X195716000Y-111851000D01*
X197098000Y-111611000D02*
X194902000Y-111611000D01*
X198200000Y-110611000D02*
X197040000Y-110611000D01*
X197743000Y-111171000D02*
X197040000Y-111171000D01*
X197653000Y-111251000D02*
X197040000Y-111251000D01*
X194960000Y-111411000D02*
X194557000Y-111411000D01*
X198556000Y-109610000D02*
X197040000Y-109610000D01*
X194960000Y-109730000D02*
X193464000Y-109730000D01*
X197319000Y-111491000D02*
X197040000Y-111491000D01*
X194960000Y-110051000D02*
X193545000Y-110051000D01*
X198095000Y-110771000D02*
X197040000Y-110771000D01*
X197554000Y-111331000D02*
X197040000Y-111331000D01*
X198247000Y-110531000D02*
X197040000Y-110531000D01*
X194960000Y-110011000D02*
X193532000Y-110011000D01*
X198468000Y-110011000D02*
X197040000Y-110011000D01*
X198268000Y-110491000D02*
X197040000Y-110491000D01*
X198576000Y-109410000D02*
X193424000Y-109410000D01*
X198580000Y-109250000D02*
X193420000Y-109250000D01*
X194960000Y-111051000D02*
X194136000Y-111051000D01*
X194960000Y-109610000D02*
X193444000Y-109610000D01*
X194960000Y-111131000D02*
X194215000Y-111131000D01*
X197500000Y-111371000D02*
X197040000Y-111371000D01*
X194960000Y-109770000D02*
X193472000Y-109770000D01*
X198561000Y-109570000D02*
X197040000Y-109570000D01*
X194960000Y-109850000D02*
X193489000Y-109850000D01*
X194960000Y-109890000D02*
X193499000Y-109890000D01*
X197826000Y-111091000D02*
X197040000Y-111091000D01*
X194960000Y-110851000D02*
X193965000Y-110851000D01*
X198310000Y-110411000D02*
X197040000Y-110411000D01*
X194960000Y-110651000D02*
X193825000Y-110651000D01*
X198004000Y-110891000D02*
X197040000Y-110891000D01*
X198414000Y-110171000D02*
X197040000Y-110171000D01*
X196677000Y-111771000D02*
X195323000Y-111771000D01*
X197443000Y-111411000D02*
X197040000Y-111411000D01*
X198455000Y-110051000D02*
X197040000Y-110051000D01*
X194960000Y-109530000D02*
X193435000Y-109530000D01*
X194960000Y-109810000D02*
X193480000Y-109810000D01*
X194960000Y-110211000D02*
X193602000Y-110211000D01*
X194960000Y-110531000D02*
X193753000Y-110531000D01*
X194960000Y-111531000D02*
X194749000Y-111531000D01*
X198175000Y-110651000D02*
X197040000Y-110651000D01*
X198511000Y-109850000D02*
X197040000Y-109850000D01*
X194960000Y-110411000D02*
X193690000Y-110411000D01*
X194960000Y-110091000D02*
X193558000Y-110091000D01*
X197725000Y-106695225D02*
X197225000Y-106695225D01*
X196915000Y-111691000D02*
X195085000Y-111691000D01*
X198491000Y-109930000D02*
X197040000Y-109930000D01*
X194960000Y-110571000D02*
X193776000Y-110571000D01*
X197785000Y-111131000D02*
X197040000Y-111131000D01*
X194960000Y-110331000D02*
X193652000Y-110331000D01*
X194960000Y-111331000D02*
X194446000Y-111331000D01*
X194960000Y-110251000D02*
X193618000Y-110251000D01*
X194960000Y-109490000D02*
X193431000Y-109490000D01*
X194960000Y-109971000D02*
X193520000Y-109971000D01*
X197937000Y-110971000D02*
X197040000Y-110971000D01*
X198329000Y-110371000D02*
X197040000Y-110371000D01*
X198520000Y-109810000D02*
X197040000Y-109810000D01*
X194960000Y-110971000D02*
X194063000Y-110971000D01*
X194960000Y-110491000D02*
X193732000Y-110491000D01*
X194960000Y-110611000D02*
X193800000Y-110611000D01*
X198398000Y-110211000D02*
X197040000Y-110211000D01*
X194960000Y-110131000D02*
X193572000Y-110131000D01*
X198543000Y-109690000D02*
X197040000Y-109690000D01*
X198365000Y-110291000D02*
X197040000Y-110291000D01*
X194960000Y-111491000D02*
X194681000Y-111491000D01*
X194960000Y-110771000D02*
X193905000Y-110771000D01*
X197699000Y-111211000D02*
X197040000Y-111211000D01*
X194960000Y-111171000D02*
X194257000Y-111171000D01*
X194960000Y-111211000D02*
X194301000Y-111211000D01*
X194960000Y-110371000D02*
X193671000Y-110371000D01*
X194960000Y-109930000D02*
X193509000Y-109930000D01*
X198149000Y-110691000D02*
X197040000Y-110691000D01*
X198620000Y-109250000D02*
G75*
G03*
X198620000Y-109250000I-2620000J0D01*
G01*
%TO.C,D1*%
X227530000Y-123720000D02*
X230470000Y-123720000D01*
X230470000Y-119300000D02*
X227530000Y-119300000D01*
X230470000Y-123720000D02*
X230470000Y-118280000D01*
X230470000Y-119180000D02*
X227530000Y-119180000D01*
X229000000Y-117260000D02*
X229000000Y-118280000D01*
X230470000Y-119060000D02*
X227530000Y-119060000D01*
X229000000Y-124740000D02*
X229000000Y-123720000D01*
X230470000Y-118280000D02*
X227530000Y-118280000D01*
X227530000Y-118280000D02*
X227530000Y-123720000D01*
%TO.C,*%
X222000000Y-101410000D02*
X222000000Y-105610000D01*
X223920000Y-99490000D02*
G75*
G03*
X223920000Y-99490000I-1920000J0D01*
G01*
X212590000Y-105000000D02*
X208390000Y-105000000D01*
X216430000Y-105000000D02*
G75*
G03*
X216430000Y-105000000I-1920000J0D01*
G01*
X216410000Y-96000000D02*
X220610000Y-96000000D01*
X216410000Y-96000000D02*
G75*
G03*
X216410000Y-96000000I-1920000J0D01*
G01*
%TO.C,REF\u002A\u002A*%
X230700000Y-133300000D02*
X230700000Y-136700000D01*
X230700000Y-136700000D02*
X227300000Y-136700000D01*
X227300000Y-136700000D02*
X227300000Y-133300000D01*
X227300000Y-133300000D02*
X230700000Y-133300000D01*
X197700000Y-133300000D02*
X197700000Y-136700000D01*
X197700000Y-136700000D02*
X194300000Y-136700000D01*
X194300000Y-136700000D02*
X194300000Y-133300000D01*
X194300000Y-133300000D02*
X197700000Y-133300000D01*
X224700000Y-119300000D02*
X224700000Y-122700000D01*
X224700000Y-122700000D02*
X221300000Y-122700000D01*
X221300000Y-122700000D02*
X221300000Y-119300000D01*
X221300000Y-119300000D02*
X224700000Y-119300000D01*
X197700000Y-124300000D02*
X197700000Y-127700000D01*
X197700000Y-127700000D02*
X194300000Y-127700000D01*
X194300000Y-127700000D02*
X194300000Y-124300000D01*
X194300000Y-124300000D02*
X197700000Y-124300000D01*
X230700000Y-129300000D02*
X230700000Y-132700000D01*
X230700000Y-132700000D02*
X227300000Y-132700000D01*
X227300000Y-132700000D02*
X227300000Y-129300000D01*
X227300000Y-129300000D02*
X230700000Y-129300000D01*
X224700000Y-114300000D02*
X224700000Y-117700000D01*
X224700000Y-117700000D02*
X221300000Y-117700000D01*
X221300000Y-117700000D02*
X221300000Y-114300000D01*
X221300000Y-114300000D02*
X224700000Y-114300000D01*
X197700000Y-129300000D02*
X197700000Y-132700000D01*
X197700000Y-132700000D02*
X194300000Y-132700000D01*
X194300000Y-132700000D02*
X194300000Y-129300000D01*
X194300000Y-129300000D02*
X197700000Y-129300000D01*
X197700000Y-120300000D02*
X197700000Y-123700000D01*
X197700000Y-123700000D02*
X194300000Y-123700000D01*
X194300000Y-123700000D02*
X194300000Y-120300000D01*
X194300000Y-120300000D02*
X197700000Y-120300000D01*
%TO.C,NANO*%
X209340000Y-97320000D02*
X212010000Y-97320000D01*
X193970000Y-56550000D02*
X193970000Y-99990000D01*
X212010000Y-94780000D02*
X212010000Y-56550000D01*
X209340000Y-59220000D02*
X212010000Y-59220000D01*
X196640000Y-97320000D02*
X196640000Y-59220000D01*
X209340000Y-94780000D02*
X209340000Y-97320000D01*
X196640000Y-59220000D02*
X193970000Y-59220000D01*
X196640000Y-97320000D02*
X193970000Y-97320000D01*
X209340000Y-94780000D02*
X212010000Y-94780000D01*
X193970000Y-99990000D02*
X212010000Y-99990000D01*
X212010000Y-56550000D02*
X193970000Y-56550000D01*
X212010000Y-99990000D02*
X212010000Y-97320000D01*
X209340000Y-94780000D02*
X209340000Y-59220000D01*
%TO.C,Vcc\u002C Out\u002C Gnd*%
X224255000Y-63355000D02*
X219115000Y-63355000D01*
X219115000Y-60695000D02*
X219115000Y-63355000D01*
X226855000Y-62025000D02*
X226855000Y-63355000D01*
X224255000Y-60695000D02*
X219115000Y-60695000D01*
X226855000Y-63355000D02*
X225525000Y-63355000D01*
X224255000Y-60695000D02*
X224255000Y-63355000D01*
%TO.C,REF\u002A\u002A*%
X230700000Y-102300000D02*
X230700000Y-105700000D01*
X230700000Y-105700000D02*
X227300000Y-105700000D01*
X227300000Y-105700000D02*
X227300000Y-102300000D01*
X227300000Y-102300000D02*
X230700000Y-102300000D01*
%TO.C,ADG436*%
X211810000Y-116670000D02*
G75*
G03*
X213810000Y-116670000I1000000J0D01*
G01*
X217950000Y-116610000D02*
X207670000Y-116610000D01*
X207670000Y-137170000D02*
X217950000Y-137170000D01*
X210160000Y-116670000D02*
X210160000Y-137110000D01*
X215460000Y-116670000D02*
X213810000Y-116670000D01*
X210160000Y-137110000D02*
X215460000Y-137110000D01*
X211810000Y-116670000D02*
X210160000Y-116670000D01*
X207670000Y-116610000D02*
X207670000Y-137170000D01*
X217950000Y-137170000D02*
X217950000Y-116610000D01*
X215460000Y-137110000D02*
X215460000Y-116670000D01*
%TO.C,REF\u002A\u002A*%
X227300000Y-96300000D02*
X230700000Y-96300000D01*
X230700000Y-96300000D02*
X230700000Y-99700000D01*
X227300000Y-99700000D02*
X227300000Y-96300000D01*
X230700000Y-99700000D02*
X227300000Y-99700000D01*
D17*
X206650000Y-53730000D02*
X205380000Y-53730000D01*
X205380000Y-53730000D02*
X205380000Y-56270000D01*
X205380000Y-56270000D02*
X220620000Y-56270000D01*
X220620000Y-53730000D02*
X219350000Y-53730000D01*
X220620000Y-56270000D02*
X220620000Y-53730000D01*
D18*
X219355000Y-53740000D02*
X206675000Y-53740000D01*
D16*
%TO.C,Midi In*%
X226855000Y-84855000D02*
X225525000Y-84855000D01*
X224255000Y-82195000D02*
X224255000Y-84855000D01*
X219115000Y-82195000D02*
X219115000Y-84855000D01*
X226855000Y-83525000D02*
X226855000Y-84855000D01*
X224255000Y-82195000D02*
X219115000Y-82195000D01*
X224255000Y-84855000D02*
X219115000Y-84855000D01*
%TD*%
M02*
