%TF.GenerationSoftware,KiCad,Pcbnew,(6.0.4)*%
%TF.CreationDate,2024-09-07T16:12:38+01:00*%
%TF.ProjectId,pcb,7063622e-6b69-4636-9164-5f7063625858,rev?*%
%TF.SameCoordinates,Original*%
%TF.FileFunction,Soldermask,Top*%
%TF.FilePolarity,Negative*%
%FSLAX46Y46*%
G04 Gerber Fmt 4.6, Leading zero omitted, Abs format (unit mm)*
G04 Created by KiCad (PCBNEW (6.0.4)) date 2024-09-07 16:12:38*
%MOMM*%
%LPD*%
G01*
G04 APERTURE LIST*
%ADD10C,1.600000*%
%ADD11R,1.600000X1.600000*%
%ADD12R,2.200000X2.200000*%
%ADD13O,2.200000X2.200000*%
%ADD14C,2.400000*%
%ADD15O,2.400000X2.400000*%
%ADD16R,3.000000X3.000000*%
%ADD17O,1.600000X1.600000*%
%ADD18R,1.700000X1.700000*%
%ADD19O,1.700000X1.700000*%
%ADD20O,3.454400X1.778000*%
G04 APERTURE END LIST*
D10*
%TO.C,C*%
X223000000Y-124500000D03*
X223000000Y-129500000D03*
%TD*%
%TO.C,C*%
X225500000Y-135000000D03*
X220500000Y-135000000D03*
%TD*%
%TO.C,C*%
X205000000Y-135000000D03*
X200000000Y-135000000D03*
%TD*%
%TO.C,C*%
X204500000Y-126000000D03*
X199500000Y-126000000D03*
%TD*%
D11*
%TO.C,C1*%
X196000000Y-108000000D03*
D10*
X196000000Y-110500000D03*
%TD*%
D12*
%TO.C,D1*%
X229000000Y-115920000D03*
D13*
X229000000Y-126080000D03*
%TD*%
D14*
%TO.C,*%
X222000000Y-99490000D03*
D15*
X222000000Y-107110000D03*
%TD*%
D14*
%TO.C,*%
X214510000Y-105000000D03*
D15*
X206890000Y-105000000D03*
%TD*%
D14*
%TO.C,*%
X214490000Y-96000000D03*
D15*
X222110000Y-96000000D03*
%TD*%
D16*
%TO.C,*%
X229000000Y-94000000D03*
%TD*%
%TO.C,*%
X229000000Y-86000000D03*
%TD*%
%TO.C,*%
X229000000Y-90000000D03*
%TD*%
%TO.C,REF\u002A\u002A*%
X229000000Y-135000000D03*
%TD*%
%TO.C,REF\u002A\u002A*%
X196000000Y-135000000D03*
%TD*%
%TO.C,REF\u002A\u002A*%
X223000000Y-121000000D03*
%TD*%
%TO.C,REF\u002A\u002A*%
X196000000Y-126000000D03*
%TD*%
%TO.C,REF\u002A\u002A*%
X229000000Y-131000000D03*
%TD*%
%TO.C,REF\u002A\u002A*%
X223000000Y-116000000D03*
%TD*%
%TO.C,REF\u002A\u002A*%
X196000000Y-131000000D03*
%TD*%
%TO.C,REF\u002A\u002A*%
X196000000Y-122000000D03*
%TD*%
D11*
%TO.C,NANO*%
X210610000Y-96050000D03*
D17*
X210610000Y-93510000D03*
X210610000Y-90970000D03*
X210610000Y-88430000D03*
X210610000Y-85890000D03*
X210610000Y-83350000D03*
X210610000Y-80810000D03*
X210610000Y-78270000D03*
X210610000Y-75730000D03*
X210610000Y-73190000D03*
X210610000Y-70650000D03*
X210610000Y-68110000D03*
X210610000Y-65570000D03*
X210610000Y-63030000D03*
X210610000Y-60490000D03*
X195370000Y-60490000D03*
X195370000Y-63030000D03*
X195370000Y-65570000D03*
X195370000Y-68110000D03*
X195370000Y-70650000D03*
X195370000Y-73190000D03*
X195370000Y-75730000D03*
X195370000Y-78270000D03*
X195370000Y-80810000D03*
X195370000Y-83350000D03*
X195370000Y-85890000D03*
X195370000Y-88430000D03*
X195370000Y-90970000D03*
X195370000Y-93510000D03*
X195370000Y-96050000D03*
%TD*%
D16*
%TO.C,*%
X224000000Y-55000000D03*
%TD*%
D18*
%TO.C,Vcc\u002C Out\u002C Gnd*%
X225525000Y-62025000D03*
D19*
X222985000Y-62025000D03*
X220445000Y-62025000D03*
%TD*%
D16*
%TO.C,REF\u002A\u002A*%
X229000000Y-104000000D03*
%TD*%
D17*
%TO.C,ADG436*%
X216620000Y-118000000D03*
X216620000Y-120540000D03*
X216620000Y-123080000D03*
X216620000Y-125620000D03*
X216620000Y-128160000D03*
X216620000Y-130700000D03*
X216620000Y-133240000D03*
X216620000Y-135780000D03*
X209000000Y-135780000D03*
X209000000Y-133240000D03*
X209000000Y-130700000D03*
X209000000Y-128160000D03*
X209000000Y-125620000D03*
X209000000Y-123080000D03*
X209000000Y-120540000D03*
D11*
X209000000Y-118000000D03*
%TD*%
D16*
%TO.C,REF\u002A\u002A*%
X229000000Y-98000000D03*
%TD*%
D20*
%TO.C,REF\u002A\u002A*%
X218080000Y-55000000D03*
X213000000Y-55000000D03*
X207920000Y-55000000D03*
%TD*%
D18*
%TO.C,Midi In*%
X225525000Y-83525000D03*
D19*
X222985000Y-83525000D03*
X220445000Y-83525000D03*
%TD*%
D16*
%TO.C,*%
X229000000Y-55000000D03*
%TD*%
M02*
